<?xml version="1.0" standalone="no"?>
<!DOCTYPE svg PUBLIC "-//W3C//DTD SVG 1.1//EN" "http://www.w3.org/Graphics/SVG/1.1/DTD/svg11.dtd" >
<svg xmlns="http://www.w3.org/2000/svg" xmlns:xlink="http://www.w3.org/1999/xlink" version="1.1">
<metadata>
Created by FontForge 20170731 at Thu Apr  2 08:58:59 2015
 By Aleksey,,,
Copyright (c) 2011 by The Entente. All rights reserved. wf-rip
</metadata>
<defs>
<font id="Relative-Book" horiz-adv-x="1167" >
  <font-face 
    font-family="Relative-Book"
    font-weight="400"
    font-stretch="normal"
    units-per-em="2048"
    panose-1="2 0 5 6 3 0 0 2 0 4"
    ascent="1638"
    descent="-410"
    x-height="1028"
    cap-height="1434"
    bbox="-135.778 -467 2193 1880"
    underline-thickness="102"
    underline-position="-408"
    unicode-range="U+0020-FB02"
  />
<missing-glyph horiz-adv-x="1292" 
d="M344 164h604v1106h-604v-1106zM172 20v1393q0 20 21 21h907q20 0 20 -21v-1393q0 -20 -20 -20h-907q-21 0 -21 20z" />
    <glyph glyph-name="fi" unicode="fi" horiz-adv-x="1204" 
d="M905 20v988q0 20 21 20h118q20 0 21 -20v-988q0 -20 -21 -20h-118q-21 0 -21 20zM877 1237v176q0 20 20 21h176q20 0 21 -21v-176q0 -20 -21 -20h-176q-20 0 -20 20zM49 897v111q0 20 21 20h168v131q0 129 81.5 212t202.5 83t205 -39q16 -8 16 -35v-108q0 -29 -28 -15
q-91 45 -167 45t-113.5 -41.5t-37.5 -115.5v-117h316q20 0 20 -20v-111q0 -20 -20 -20h-316v-857q0 -20 -20 -20h-119q-20 0 -20 20v857h-168q-21 0 -21 20z" />
    <glyph glyph-name="fl" unicode="fl" horiz-adv-x="1253" 
d="M930 20v1393q0 20 20 21h119q20 0 21 -21v-1393q0 -20 -21 -20h-119q-20 0 -20 20zM49 897v111q0 20 21 20h168v131q0 129 81.5 212t202.5 83t205 -39q16 -8 16 -35v-108q0 -29 -28 -15q-91 45 -167 45t-113.5 -41.5t-37.5 -115.5v-117h316q20 0 20 -20v-111
q0 -20 -20 -20h-316v-857q0 -20 -20 -20h-119q-20 0 -20 20v857h-168q-21 0 -21 20z" />
    <glyph glyph-name=".notdef" horiz-adv-x="1292" 
d="M344 164h604v1106h-604v-1106zM172 20v1393q0 20 21 21h907q20 0 20 -21v-1393q0 -20 -20 -20h-907q-21 0 -21 20z" />
    <glyph glyph-name=".null" horiz-adv-x="0" 
 />
    <glyph glyph-name="nonmarkingreturn" horiz-adv-x="0" 
 />
    <glyph glyph-name="space" unicode=" " horiz-adv-x="522" 
 />
    <glyph glyph-name="exclam" unicode="!" horiz-adv-x="618" 
d="M223 416v997q0 20 21 21h131q20 0 20 -21v-997q0 -20 -20 -21h-131q-21 1 -21 21zM207 20v164q0 20 20 21h164q20 0 21 -21v-164q0 -20 -21 -20h-164q-20 0 -20 20z" />
    <glyph glyph-name="quotedbl" unicode="&#x22;" horiz-adv-x="851" 
d="M541 983v430q0 20 20 21h119q20 0 20 -21v-430q0 -20 -20 -20h-119q-20 0 -20 20zM152 983v430q0 20 20 21h119q20 0 20 -21v-430q0 -20 -20 -20h-119q-20 0 -20 20z" />
    <glyph glyph-name="numbersign" unicode="#" horiz-adv-x="1591" 
d="M594 569h350l51 295h-350zM143 426v123q0 20 21 20h258l51 295h-227q-20 0 -21 21v123q0 20 21 20h254l67 385q2 20 23 21h131q20 0 18 -21l-67 -385h350l68 385q2 20 22 21h131q20 0 19 -21l-68 -385h231q20 0 21 -20v-123q0 -20 -21 -21h-258l-51 -295h227q20 0 21 -20
v-123q0 -20 -21 -20h-256l-65 -386q-2 -20 -23 -20h-131q-20 0 -18 20l65 386h-350l-65 -386q-2 -20 -23 -20h-131q-20 0 -18 20l65 386h-229q-21 0 -21 20z" />
    <glyph glyph-name="dollar" unicode="$" horiz-adv-x="1208" 
d="M958 408q0 80 -71.5 131t-200.5 90v-482q272 29 272 261zM276 1079q0 -82 60.5 -134t177.5 -91v432q-106 -14 -172 -69.5t-66 -137.5zM74 434q0 20 20 21h131q20 0 21 -21q4 -106 75.5 -185t192.5 -99v526q-201 57 -305.5 148t-104.5 250t116 257.5t294 118.5v168
q0 20 21 20h131q20 0 20 -20v-168q180 -25 286.5 -137.5t110.5 -257.5q0 -20 -20 -21h-131q-20 0 -21 21q-6 86 -68.5 147.5t-156.5 83.5v-481q213 -59 328.5 -147.5t115.5 -239.5q0 -195 -119.5 -305.5t-324.5 -128.5v-168q0 -20 -20 -21h-131q-20 0 -21 21v170
q-195 23 -317.5 145.5t-122.5 302.5z" />
    <glyph glyph-name="percent" unicode="%" horiz-adv-x="1814" 
d="M1120 366.5q0 -118.5 65.5 -180t158 -61.5t158 61.5t65.5 180t-65.5 180t-158 61.5t-158 -61.5t-65.5 -180zM991 367q0 172 105.5 269t247 97t247 -97t105.5 -269t-105.5 -269.5t-247 -97.5t-247 97.5t-105.5 269.5zM297 82l1133 1345q12 16 28 0l55 -47q14 -14 5 -28
l-1133 -1346q-12 -16 -29 0l-55 47q-14 15 -4 29zM248 1067q0 -119 65.5 -180.5t157.5 -61.5t157.5 61.5t65.5 180.5t-65.5 180.5t-157.5 61.5t-157.5 -61.5t-65.5 -180.5zM119 1067q0 172 105.5 269.5t246.5 97.5t246.5 -97.5t105.5 -269.5t-105.5 -269.5t-246.5 -97.5
t-246.5 97.5t-105.5 269.5z" />
    <glyph glyph-name="ampersand" unicode="&#x26;" horiz-adv-x="1388" 
d="M457 1129q0 -82 84 -197l18 -27l125 56q129 57 129 180q0 70 -49 116t-129 46t-129 -46t-49 -128zM291 382q0 -110 72.5 -176.5t183.5 -66.5q193 0 291 117l-334 444q-106 -63 -159.5 -135.5t-53.5 -182.5zM119 397q0 283 284 437q-111 150 -111 288t95.5 235t247.5 97
t247 -85t95 -218q0 -209 -205 -313l-117 -60l269 -358q35 127 34 297q0 18 21 18h291q20 0 20 -20v-123q0 -20 -20 -21h-164q-14 -166 -76 -295l176 -243q6 -12 6 -19q0 -14 -16 -14h-156q-14 0 -26 18l-82 113q-143 -152 -385 -151q-195 0 -311.5 110t-116.5 307z" />
    <glyph glyph-name="quotesingle" unicode="'" horiz-adv-x="462" 
d="M152 983v430q0 20 20 21h119q20 0 20 -21v-430q0 -20 -20 -20h-119q-20 0 -20 20z" />
    <glyph glyph-name="parenleft" unicode="(" horiz-adv-x="731" 
d="M178 311v408q0 246 76 398.5t291 326.5q8 6 14 6t14 -8l78 -96q12 -16 -2 -29q-137 -117 -194.5 -192.5t-81 -177t-23.5 -292.5v-280q0 -190 23.5 -291.5t81 -177.5t194.5 -193q14 -12 2 -28l-78 -97q-8 -8 -14 -8t-14 6q-215 174 -291 326.5t-76 398.5z" />
    <glyph glyph-name="parenright" unicode=")" horiz-adv-x="741" 
d="M391 375v280q0 190 -23.5 292t-81 177.5t-194.5 192.5q-14 12 -2 29l78 96q8 8 14 8t15 -6q215 -174 290.5 -326.5t75.5 -398.5v-408q0 -246 -75.5 -398.5t-290.5 -326.5q-8 -6 -14.5 -6t-14.5 8l-78 97q-12 16 2 28q137 117 194.5 193t81 177t23.5 292z" />
    <glyph glyph-name="asterisk" unicode="*" horiz-adv-x="964" 
d="M410 1413q0 20 20 21h102q20 0 21 -21v-250l238 78q20 6 26 -14l31 -97q6 -20 -12 -26l-240 -78l147 -201q12 -18 -2 -28l-84 -60q-18 -12 -30 4l-146 201l-145 -201q-12 -16 -31 -4l-84 60q-14 10 -2 28l148 201l-240 78q-18 6 -12 26l30 99q6 18 27 12l238 -78v250z
" />
    <glyph glyph-name="plus" unicode="+" horiz-adv-x="1171" 
d="M133 641v119q0 20 21 20h352v353q0 20 20 20h119q20 0 21 -20v-353h352q20 0 20 -20v-119q0 -20 -20 -20h-352v-353q0 -20 -21 -20h-119q-20 0 -20 20v353h-352q-21 0 -21 20z" />
    <glyph glyph-name="comma" unicode="," horiz-adv-x="593" 
d="M197 20v156q0 20 20 21h156q20 0 20 -21v-215q0 -74 -30.5 -109.5t-102.5 -35.5h-43q-20 0 -20 20v33q0 20 20 20q59 0 76.5 15.5t17.5 70.5v25h-94q-20 0 -20 20z" />
    <glyph glyph-name="hyphen" unicode="-" horiz-adv-x="1052" 
d="M133 641v119q0 20 21 20h745q20 0 21 -20v-119q0 -20 -21 -20h-745q-21 0 -21 20z" />
    <glyph glyph-name="period" unicode="." horiz-adv-x="593" 
d="M197 20v156q0 20 20 21h156q20 0 20 -21v-156q0 -20 -20 -20h-156q-20 0 -20 20z" />
    <glyph glyph-name="slash" unicode="/" horiz-adv-x="987" 
d="M942 1434q20 0 12 -21l-710 -1393q-8 -20 -29 -20h-141q-21 0 -13 20l711 1393q8 20 29 21h141z" />
    <glyph glyph-name="zero" unicode="0" horiz-adv-x="1273" 
d="M268 717q0 -301 100.5 -439.5t268.5 -138.5t268.5 138.5t100.5 439.5t-100.5 439t-268.5 138t-268.5 -138t-100.5 -439zM96 716.5q0 356.5 152.5 547t388 190.5t388.5 -190.5t153 -547t-153 -546.5t-388.5 -190t-388 190t-152.5 546.5z" />
    <glyph glyph-name="one" unicode="1" horiz-adv-x="806" 
d="M135 1069v141q0 18 23 31l331 182q16 10 31 11h74q20 0 20 -21v-1393q0 -20 -20 -20h-127q-20 0 -21 20v1186l-274 -149q-12 -6 -22 -6q-15 0 -15 18z" />
    <glyph glyph-name="two" unicode="2" horiz-adv-x="1243" 
d="M143 20v86q0 29 23 48l579 559q76 74 104 148.5t28 180.5t-75 179t-206 73t-207 -78.5t-76 -197.5q0 -31 -26 -31h-117q-25 0 -25 31q4 188 126 312t326 124t325.5 -116.5t121.5 -299.5q0 -258 -184 -432l-469 -446h676q20 0 20 -21v-119q0 -20 -20 -20h-903
q-21 0 -21 20z" />
    <glyph glyph-name="three" unicode="3" horiz-adv-x="1232" 
d="M143 457h111q27 0 29 -27q14 -133 101 -212t228 -79t229.5 72t88.5 205t-81 200.5t-228 67.5h-121q-23 6 -23 23v114q0 23 23 23h104q127 0 197.5 59.5t70.5 166.5t-78.5 165.5t-190.5 58.5t-187.5 -62.5t-83.5 -170.5q-2 -25 -27 -25h-112q-27 0 -27 35
q10 170 135 276.5t308 106.5t303 -100.5t120 -253.5q0 -219 -176 -326q242 -94 242 -356q0 -203 -136.5 -320.5t-349.5 -117.5t-346 122.5t-149 319.5q0 35 26 35z" />
    <glyph glyph-name="four" unicode="4" horiz-adv-x="1224" 
d="M735 455v649l-438 -649h438zM86 315v76q0 25 16 47l656 979q10 16 26 17h99q20 0 20 -21v-958h203q20 0 20 -21v-119q0 -20 -20 -20h-203v-275q0 -20 -22 -20h-125q-20 0 -21 20v275h-629q-20 0 -20 20z" />
    <glyph glyph-name="five" unicode="5" horiz-adv-x="1245" 
d="M168 430h117q23 0 26 -31q16 -113 103.5 -186.5t225.5 -73.5t221 86t83 238t-85 240t-243 88t-288 -125q-18 -18 -35 -19h-119q-20 0 -20 21l88 745q2 20 20 21h754q20 0 20 -21v-119q0 -20 -20 -20h-629l-59 -432q160 109 329 108q211 0 333 -129t122 -356t-137 -356
t-346 -129t-342.5 117.5t-143.5 301.5q0 31 25 31z" />
    <glyph glyph-name="six" unicode="6" horiz-adv-x="1280" 
d="M350 452.5q0 -139.5 86 -226.5t229.5 -87t229.5 87t86 226.5t-86 226.5t-229.5 87t-229.5 -87t-86 -226.5zM152 674q0 376 140 578t378 202q178 0 296.5 -96t145.5 -260q0 -20 -22 -21h-123q-16 0 -23 21q-29 104 -103.5 154.5t-170.5 50.5q-147 0 -240.5 -132.5
t-97.5 -398.5q63 76 158.5 115t193.5 39q205 0 335 -126t130 -345t-142.5 -347t-356.5 -128t-356 159t-142 535z" />
    <glyph glyph-name="seven" unicode="7" horiz-adv-x="1044" 
d="M84 1294v119q0 20 20 21h877q20 0 20 -21v-78q0 -23 -10 -51l-487 -1270q-6 -14 -23 -14h-127q-20 0 -20 16q0 6 4 15l473 1243h-707q-20 0 -20 20z" />
    <glyph glyph-name="eight" unicode="8" horiz-adv-x="1232" 
d="M348 1067q0 -104 73 -170t195.5 -66t195.5 66t73 170t-75 165.5t-193.5 61.5t-193.5 -61.5t-75 -165.5zM311 407q0 -126 83 -197t222.5 -71t222.5 71t83 197t-83 197.5t-222.5 71.5t-222.5 -71.5t-83 -197.5zM143 406q0 242 217 356q-172 109 -172 313q0 174 125 276.5
t303.5 102.5t303 -102.5t124.5 -276.5q0 -205 -172 -313q217 -115 218 -356q0 -186 -133.5 -306t-340 -120t-340 120t-133.5 306z" />
    <glyph glyph-name="nine" unicode="9" horiz-adv-x="1280" 
d="M299 981q0 -139 86 -226t229.5 -87t229.5 87t86 226t-86 226t-229.5 87t-229.5 -87t-86 -226zM131 979q0 219 142.5 347t356.5 128t356 -158.5t142 -535.5t-140 -578.5t-378 -201.5q-178 0 -296.5 96t-145.5 260q0 20 22 20h123q16 0 23 -20q29 -104 103.5 -154.5
t170.5 -50.5q147 0 240.5 132t97.5 399q-63 -76 -158.5 -115t-193.5 -39q-205 0 -335 126t-130 345z" />
    <glyph glyph-name="colon" unicode=":" horiz-adv-x="593" 
d="M197 852v156q0 20 20 20h156q20 0 20 -20v-156q0 -20 -20 -21h-156q-20 1 -20 21zM197 20v156q0 20 20 21h156q20 0 20 -21v-156q0 -20 -20 -20h-156q-20 0 -20 20z" />
    <glyph glyph-name="semicolon" unicode=";" horiz-adv-x="593" 
d="M197 852v156q0 20 20 20h156q20 0 20 -20v-156q0 -20 -20 -21h-156q-20 1 -20 21zM197 20v156q0 20 20 21h156q20 0 20 -21v-215q0 -74 -30.5 -109.5t-102.5 -35.5h-43q-20 0 -20 20v33q0 20 20 20q59 0 76.5 15.5t17.5 70.5v25h-94q-20 0 -20 20z" />
    <glyph glyph-name="less" unicode="&#x3c;" horiz-adv-x="1058" 
d="M131 524v152q0 18 21 26l739 400q20 8 20 -12v-140q0 -20 -20 -28l-608 -322l608 -321q20 -8 20 -29v-139q0 -20 -20 -13l-739 400q-21 8 -21 26z" />
    <glyph glyph-name="equal" unicode="=" horiz-adv-x="1163" 
d="M156 764v119q0 20 20 20h864q20 0 21 -20v-119q0 -20 -21 -21h-864q-20 1 -20 21zM156 348v119q0 20 20 20h864q20 0 21 -20v-119q0 -20 -21 -20h-864q-20 0 -20 20z" />
    <glyph glyph-name="greater" unicode="&#x3e;" horiz-adv-x="1058" 
d="M147 111v139q0 20 21 29l608 321l-608 322q-20 8 -21 28v140q0 20 21 12l739 -400q20 -8 21 -26v-152q0 -18 -21 -26l-739 -400q-21 -7 -21 13z" />
    <glyph glyph-name="question" unicode="?" 
d="M496 20v164q0 20 20 21h164q20 0 20 -21v-164q0 -20 -20 -20h-164q-20 0 -20 20zM600 1454q199 0 315.5 -108.5t116.5 -271.5t-123 -269l-102 -88q-123 -104 -123 -225v-76q0 -20 -20 -21h-132q-20 0 -20 21v61q0 90 36 163t87 121t138 121.5t87 178.5q0 106 -69.5 167.5
t-184.5 61.5t-192.5 -62.5t-91.5 -178.5q-2 -20 -21 -21h-127q-20 1 -20 21q6 170 126.5 287.5t319.5 117.5z" />
    <glyph glyph-name="at" unicode="@" horiz-adv-x="1650" 
d="M571 551q1 -258 217 -258q112 0 179 93t67 230q0 258 -196 258q-129 0 -198 -98t-69 -225zM92 584q0 227 107.5 401t279.5 263t375 89q319 0 512 -204.5t193 -485.5q0 -233 -81 -351t-225 -118q-72 0 -132 37t-79 90q-106 -127 -282 -127q-143 0 -235.5 96.5t-92.5 274.5
t111.5 309t275.5 131t234 -104l8 73q4 16 16 17h90q16 0 17 -17l-47 -430q-4 -49 -4 -71q0 -86 35.5 -125t93.5 -39q162 0 161 338q0 246 -147.5 412.5t-415.5 166.5t-447.5 -171t-179.5 -463t172.5 -465.5t448.5 -173.5q123 0 209 27.5t178 80.5q18 8 25 -8l43 -86
q6 -16 -9 -25q-217 -117 -446 -116q-330 0 -546 212t-216 562z" />
    <glyph glyph-name="A" unicode="A" horiz-adv-x="1282" 
d="M408 580h466l-233 647zM23 20q0 6 2 13l507 1380q6 20 21 21h176q14 0 21 -21l507 -1380q2 -6 3 -13q0 -20 -23 -20h-137q-18 0 -25 20l-141 396h-586l-141 -396q-6 -20 -25 -20h-137q-22 0 -22 20z" />
    <glyph glyph-name="B" unicode="B" horiz-adv-x="1288" 
d="M344 836h365q102 0 165.5 52t63.5 158t-65.5 165t-163.5 59h-365v-434zM344 164h373q133 0 207.5 63.5t74.5 190.5t-74.5 190.5t-207.5 63.5h-373v-508zM172 20v1393q0 20 21 21h493q178 0 301 -91.5t123 -267.5q0 -207 -170 -313q231 -106 231 -354q0 -184 -117.5 -296
t-308.5 -112h-552q-21 0 -21 20z" />
    <glyph glyph-name="C" unicode="C" horiz-adv-x="1447" 
d="M106 717q0 180 54.5 324.5t194.5 278.5t385 134t415 -135t203 -363q0 -20 -23 -20h-125q-18 0 -24 20q-96 334 -441 334q-197 0 -327.5 -146.5t-130.5 -427t131 -427t327 -146.5q344 0 441 334q6 20 24 21h125q23 0 23 -21q-33 -227 -203 -362t-415 -135t-385 134
t-194.5 278.5t-54.5 324.5z" />
    <glyph glyph-name="D" unicode="D" horiz-adv-x="1349" 
d="M344 164h221q225 0 361.5 138t136.5 414.5t-136 415t-362 138.5h-221v-1106zM172 20v1393q0 20 21 21h397q283 0 468 -186.5t185 -530.5t-185.5 -530.5t-467.5 -186.5h-397q-21 0 -21 20z" />
    <glyph glyph-name="E" unicode="E" horiz-adv-x="1196" 
d="M172 20v1393q0 20 21 21h827q20 0 20 -21v-123q0 -20 -20 -20h-676v-434h614q20 0 21 -21v-123q0 -20 -21 -20h-614v-508h707q20 0 20 -21v-123q0 -20 -20 -20h-858q-21 0 -21 20z" />
    <glyph glyph-name="F" unicode="F" horiz-adv-x="1206" 
d="M172 20v1393q0 20 21 21h856q20 0 20 -21v-123q0 -20 -20 -20h-705v-465h639q20 0 21 -21v-122q0 -20 -21 -21h-639v-621q0 -20 -20 -20h-131q-21 0 -21 20z" />
    <glyph glyph-name="G" unicode="G" horiz-adv-x="1460" 
d="M106 717q0 178 56.5 322.5t201.5 279.5t382 135t398 -111.5t202 -318.5q0 -20 -23 -20h-131q-18 0 -25 20q-37 135 -145.5 200.5t-261.5 65.5q-199 0 -336 -152.5t-137 -424.5t131 -421t362 -149q291 0 414 207v215h-408q-20 0 -20 21v123q0 20 20 20h560q20 0 20 -20
v-357q0 -47 -20 -78q-190 -295 -558 -294q-289 0 -485.5 193.5t-196.5 543.5z" />
    <glyph glyph-name="H" unicode="H" horiz-adv-x="1388" 
d="M172 20v1393q0 20 21 21h131q20 0 20 -21v-584h700v584q0 20 21 21h131q20 0 21 -21v-1393q0 -20 -21 -20h-131q-20 0 -21 20v646h-700v-646q0 -20 -20 -20h-131q-21 0 -21 20z" />
    <glyph glyph-name="I" unicode="I" horiz-adv-x="516" 
d="M172 20v1393q0 20 21 21h131q20 0 20 -21v-1393q0 -20 -20 -20h-131q-21 0 -21 20z" />
    <glyph glyph-name="J" unicode="J" horiz-adv-x="1107" 
d="M68 436q0 20 20 21h131q20 0 21 -21q0 -129 76 -211t216 -82q280 0 281 361v909q0 20 21 21h131q20 0 20 -21v-907q0 -266 -127 -396t-336 -130t-331.5 128.5t-122.5 327.5z" />
    <glyph glyph-name="K" unicode="K" horiz-adv-x="1257" 
d="M1237 15q0 -15 -18 -15h-166q-18 0 -37 31l-473 733l-199 -215v-529q0 -20 -20 -20h-131q-21 0 -21 20v1393q0 20 21 21h131q20 0 20 -21v-616l580 616q18 20 32 21h172q14 0 18.5 -10.5t-5.5 -18.5l-465 -500l557 -876q4 -7 4 -14z" />
    <glyph glyph-name="L" unicode="L" horiz-adv-x="1183" 
d="M172 20v1393q0 20 21 21h131q20 0 20 -21v-1249h735q20 0 21 -21v-123q0 -20 -21 -20h-886q-21 0 -21 20z" />
    <glyph glyph-name="M" unicode="M" horiz-adv-x="1634" 
d="M172 20v1393q0 20 21 21h194q25 0 33 -21l397 -911l397 911q8 20 33 21h195q20 0 20 -21v-1393q0 -20 -20 -20h-131q-20 0 -21 20v1145l-401 -907q-8 -18 -27 -18h-90q-18 0 -27 18l-401 907v-1145q0 -20 -20 -20h-131q-21 0 -21 20z" />
    <glyph glyph-name="N" unicode="N" horiz-adv-x="1425" 
d="M172 20v1393q0 20 21 21h157q27 0 33 -17l698 -1147v1143q0 20 21 21h131q20 0 20 -21v-1393q0 -20 -20 -20h-158q-27 0 -33 16l-698 1147v-1143q0 -20 -20 -20h-131q-21 0 -21 20z" />
    <glyph glyph-name="O" unicode="O" horiz-adv-x="1572" 
d="M287 716.5q0 -278.5 143 -426t356 -147.5t356.5 147.5t143.5 426t-143.5 426t-356.5 147.5t-356 -147.5t-143 -426zM106 717q0 178 58.5 321.5t156 232.5t217 136t248.5 47t249 -47t217.5 -136t155.5 -232.5t58 -321.5t-58 -321.5t-155.5 -232.5t-217.5 -136t-249 -47
t-248.5 47t-217 136t-156 232.5t-58.5 321.5z" />
    <glyph glyph-name="P" unicode="P" horiz-adv-x="1241" 
d="M344 799h371q133 0 196.5 57t63.5 178t-63.5 178.5t-196.5 57.5h-371v-471zM172 20v1393q0 20 21 21h495q227 0 347 -104.5t120 -295t-120 -295t-347 -104.5h-344v-615q0 -20 -20 -20h-131q-21 0 -21 20z" />
    <glyph glyph-name="Q" unicode="Q" horiz-adv-x="1572" 
d="M287 716.5q0 -278.5 143 -426t356 -147.5q160 0 279 80l-145 144q-15 15 0 28l92 97q8 8 14 8t14 -8l148 -144q98 143 98 369q0 279 -143.5 426t-356.5 147t-356 -147.5t-143 -426zM106 717q0 178 58.5 321.5t156 232.5t217 136t248.5 47t249 -47t217.5 -136
t155.5 -232.5t58 -321.5q0 -291 -155 -490l127 -121q8 -8 8 -14t-8 -14l-92 -96q-15 -15 -29 0l-131 124q-176 -127 -400 -126q-265 0 -414 136t-207.5 279.5t-58.5 321.5z" />
    <glyph glyph-name="R" unicode="R" horiz-adv-x="1259" 
d="M344 840h367q250 0 250 215t-250 215h-367v-430zM172 20v1393q0 20 21 21h505q207 0 321 -97.5t114 -281.5q0 -141 -74 -231.5t-195 -129.5l314 -674q2 -5 2 -8q0 -12 -19 -12h-143q-16 0 -29 20l-311 656h-334v-656q0 -20 -20 -20h-131q-21 0 -21 20z" />
    <glyph glyph-name="S" unicode="S" horiz-adv-x="1208" 
d="M74 434q0 20 20 21h131q20 0 21 -21q4 -127 101 -209t255 -82q356 0 356 265q0 96 -95 149t-303 106t-328.5 145.5t-120.5 267.5t139 276.5t351 101.5t345 -116.5t137 -282.5q0 -20 -20 -21h-131q-20 0 -21 21q-6 104 -97 169.5t-224 65.5t-220 -56t-87 -158t93 -158
t302 -111t330.5 -143.5t121.5 -245.5q0 -215 -143 -326.5t-377 -111.5t-385 126.5t-151 327.5z" />
    <glyph glyph-name="T" unicode="T" horiz-adv-x="1155" 
d="M51 1290v123q0 20 21 21h1011q20 0 21 -21v-123q0 -20 -21 -20h-419v-1250q0 -20 -21 -20h-131q-20 0 -20 20v1250h-420q-21 0 -21 20z" />
    <glyph glyph-name="U" unicode="U" horiz-adv-x="1310" 
d="M139 496v917q0 20 21 21h131q20 0 20 -21v-895q0 -182 89 -278.5t255 -96.5t255 96.5t89 278.5v895q0 20 21 21h131q20 0 20 -21v-917q0 -240 -145 -378t-370.5 -138t-371 138t-145.5 378z" />
    <glyph glyph-name="V" unicode="V" horiz-adv-x="1277" 
d="M39 1434h160q18 0 24 -21l416 -1208l416 1208q6 20 24 21h160q18 0 18 -13q0 -3 -2 -8l-499 -1393q-6 -20 -23 -20h-188q-16 0 -23 20l-499 1393q-1 5 -1 13t17 8z" />
    <glyph glyph-name="W" unicode="W" horiz-adv-x="1712" 
d="M51 1434h146q18 0 24 -21l260 -1186l275 1088q6 20 24 20h152q18 0 24 -20l275 -1088l260 1186q2 20 25 21h145q18 0 18 -13q0 -3 -2 -8l-317 -1393q-6 -20 -23 -20h-186q-16 0 -23 20l-272 1067l-272 -1067q-6 -20 -23 -20h-186q-16 0 -23 20l-317 1393q-1 5 -1 13t17 8
z" />
    <glyph glyph-name="X" unicode="X" horiz-adv-x="1220" 
d="M35 0q-17 0 -17 8t2 12l488 736l-434 657q-4 8 0 14.5t14 6.5h158q14 0 28 -21l336 -506l336 506q14 20 29 21h158q10 0 14 -6.5t0 -14.5l-434 -657l487 -736q2 -4 2 -12t-16 -8h-154q-18 0 -33 20l-389 586l-389 -586q-14 -20 -33 -20h-153z" />
    <glyph glyph-name="Y" unicode="Y" horiz-adv-x="1118" 
d="M15 1426q0 8 16 8h162q16 0 24 -17l342 -680l342 680q8 16 25 17h161q22 0 13 -21l-455 -885v-508q0 -20 -20 -20h-131q-20 0 -21 20v508l-455 885q-3 5 -3 13z" />
    <glyph glyph-name="Z" unicode="Z" horiz-adv-x="1241" 
d="M84 20v123q0 16 12 35l805 1092h-762q-20 0 -20 20v123q0 20 20 21h948q20 0 21 -21v-123q0 -16 -12 -35l-803 -1091h837q20 0 21 -21v-123q0 -20 -21 -20h-1026q-20 0 -20 20z" />
    <glyph glyph-name="bracketleft" unicode="[" horiz-adv-x="837" 
d="M172 -385v1798q0 20 21 21h518q20 0 20 -21v-123q0 -20 -20 -20h-367v-1512h367q20 0 20 -20v-123q0 -20 -20 -21h-518q-21 1 -21 21z" />
    <glyph glyph-name="backslash" unicode="\" horiz-adv-x="987" 
d="M186 1434q20 0 29 -21l711 -1393q8 -20 -13 -20h-141q-20 0 -29 20l-710 1393q-8 20 12 21h141z" />
    <glyph glyph-name="bracketright" unicode="]" horiz-adv-x="837" 
d="M106 -262q0 20 21 20h367v1512h-367q-20 0 -21 20v123q0 20 21 21h518q20 0 21 -21v-1798q0 -20 -21 -21h-518q-20 0 -21 21v123z" />
    <glyph glyph-name="asciicircum" unicode="^" horiz-adv-x="1138" 
d="M649 1434q16 0 27 -21l393 -633q4 -8 0 -14t-12 -6h-144q-18 0 -28 20l-316 523l-315 -523q-10 -20 -29 -20h-143q-8 0 -12 6t0 14l393 633q10 20 26 21h160z" />
    <glyph glyph-name="underscore" unicode="_" horiz-adv-x="1148" 
d="M133 -20q0 20 21 20h841q20 0 21 -20v-119q0 -20 -21 -21h-841q-20 0 -21 21v119z" />
    <glyph glyph-name="grave" unicode="`" horiz-adv-x="776" 
d="M197 1426q0 7 14 8h195q18 0 30 -21l142 -258q2 -4 2 -8q0 -12 -13 -12h-118q-23 0 -37 18l-211 260q-4 6 -4 13z" />
    <glyph glyph-name="a" unicode="a" horiz-adv-x="1103" 
d="M540 496q-274 0 -274 -180q0 -185 234 -185q120 0 211.5 85t91.5 235q-131 45 -263 45zM803 127q-105 -147 -355 -147q-128 0 -239 85.5t-111 244.5t117 248t299 89q131 0 289 -45v57q0 115 -64.5 176.5t-183.5 61.5q-180 0 -242 -156q-6 -18 -28 -18h-131q-21 0 -13 33
q33 127 138.5 210t280.5 83t289 -99.5t114 -259.5v-493q0 -113 34 -177q4 -8 4 -10q0 -10 -16 -10h-162q-20 0 -20 20v107z" />
    <glyph glyph-name="b" unicode="b" horiz-adv-x="1220" 
d="M307 514q0 -170 88 -276.5t240 -106.5t233.5 104.5t81.5 278.5t-82 278.5t-234 104.5t-239.5 -106.5t-87.5 -276.5zM164 20v1393q0 20 20 21h119q20 0 21 -21v-504q142 139 342 139t326 -147t126 -387t-126 -387t-334 -147t-334 137v-97q0 -20 -21 -20h-119q-20 0 -20 20
z" />
    <glyph glyph-name="c" unicode="c" horiz-adv-x="1161" 
d="M102 514.5q0 233.5 139.5 384t368.5 150.5q182 0 300 -92.5t157 -249.5q2 -8 2 -20.5t-14 -12.5h-125q-23 0 -29 18q-33 98 -109.5 151.5t-181.5 53.5q-154 0 -247 -101.5t-93 -281.5t93.5 -281.5t246.5 -101.5q104 0 181 53.5t110 151.5q6 18 29 18h125q14 0 14 -12
t-2 -20q-39 -158 -156.5 -250t-300.5 -92q-229 0 -368.5 150.5t-139.5 384z" />
    <glyph glyph-name="d" unicode="d" horiz-adv-x="1220" 
d="M270 514q0 -174 82 -278.5t234 -104.5t239.5 106.5t87.5 276.5t-87.5 276.5t-239.5 106.5t-234 -104.5t-82 -278.5zM102 514q0 240 126 387.5t326 147.5t343 -140v504q0 20 21 21h118q20 0 21 -21v-1393q0 -20 -21 -20h-118q-20 0 -21 20v97q-127 -137 -335 -137
t-334 147t-126 387z" />
    <glyph glyph-name="e" unicode="e" horiz-adv-x="1214" 
d="M615 897q-124 0 -214.5 -73t-117.5 -208h661q-25 127 -115 204t-214 77zM102 512q0 229 145.5 383t368.5 154t361.5 -155t138.5 -376v-33q0 -20 -20 -20h-822q12 -152 103.5 -243t240.5 -91q223 0 302 188q6 18 28 19h133q22 0 11 -35q-117 -324 -478 -323
q-231 0 -371.5 151.5t-140.5 380.5z" />
    <glyph glyph-name="f" unicode="f" horiz-adv-x="765" 
d="M49 897v111q0 20 21 20h168v131q0 129 81.5 212t202.5 83t205 -39q16 -8 16 -35v-108q0 -29 -28 -15q-91 45 -167 45t-113.5 -41.5t-37.5 -115.5v-117h316q20 0 20 -20v-111q0 -20 -20 -20h-316v-857q0 -20 -20 -20h-119q-20 0 -20 20v857h-168q-21 0 -21 20z" />
    <glyph glyph-name="g" unicode="g" horiz-adv-x="1191" 
d="M270 526q0 -170 83 -270t231 -100t234.5 101t86.5 269t-86.5 269.5t-234.5 101.5t-231 -100.5t-83 -270.5zM102 528q0 234 128 377.5t332 143.5t327 -134v93q0 20 20 20h119q20 0 21 -20v-947q0 -233 -113.5 -360t-313.5 -127t-325 89t-135 245q0 20 20 20h119
q20 0 21 -20q25 -92 90 -137t201 -45t206 88t70 243v74q-143 -127 -335 -127t-322 145t-130 379z" />
    <glyph glyph-name="h" unicode="h" horiz-adv-x="1183" 
d="M164 20v1393q0 20 20 21h119q20 0 21 -21v-536q63 78 162.5 125t197.5 47q166 0 261 -92.5t95 -262.5v-674q0 -20 -20 -20h-119q-20 0 -20 20v633q0 244 -240 244q-129 0 -223 -100.5t-94 -268.5v-508q0 -20 -21 -20h-119q-20 0 -20 20z" />
    <glyph glyph-name="i" unicode="i" horiz-adv-x="438" 
d="M139 20v988q0 20 21 20h119q20 0 20 -20v-988q0 -20 -20 -20h-119q-21 0 -21 20zM111 1237v176q0 20 20 21h176q20 0 21 -21v-176q0 -20 -21 -20h-176q-20 0 -20 20z" />
    <glyph glyph-name="j" unicode="j" horiz-adv-x="438" 
d="M111 1237v176q0 20 20 21h176q20 0 21 -21v-176q0 -20 -21 -20h-176q-20 0 -20 20zM139 -80v1088q0 20 21 20h119q20 0 20 -20v-1063q0 -199 -66 -355q-6 -16 -13 -16t-17 4l-109 39q-19 6 -14 25q59 156 59 278z" />
    <glyph glyph-name="k" unicode="k" horiz-adv-x="1081" 
d="M164 20v1393q0 20 20 21h119q20 0 21 -21v-823l448 420q18 18 33 18h170q16 0 16 -11t-8 -20l-365 -340l414 -626q4 -6 4 -15q0 -16 -18 -16h-144q-23 0 -32 18l-348 523l-170 -162v-359q0 -20 -21 -20h-119q-20 0 -20 20z" />
    <glyph glyph-name="l" unicode="l" horiz-adv-x="487" 
d="M164 20v1393q0 20 20 21h119q20 0 21 -21v-1393q0 -20 -21 -20h-119q-20 0 -20 20z" />
    <glyph glyph-name="m" unicode="m" horiz-adv-x="1630" 
d="M164 20v988q0 20 20 20h119q20 0 21 -20v-113q33 63 112.5 108.5t163.5 45.5q215 0 287 -166q43 74 124 120t171 46q305 0 305 -316v-713q0 -20 -21 -20h-118q-20 0 -21 20v685q0 193 -186 192q-100 0 -168 -97.5t-68 -258.5v-521q0 -20 -20 -20h-119q-20 0 -21 20v685
q0 193 -186 192q-100 0 -167.5 -97.5t-67.5 -258.5v-521q0 -20 -21 -20h-119q-20 0 -20 20z" />
    <glyph glyph-name="n" unicode="n" 
d="M164 20v988q0 20 20 20h119q20 0 21 -20v-117q131 158 340 158q164 0 260 -98.5t96 -274.5v-656q0 -20 -21 -20h-118q-20 0 -21 20v631q0 246 -233 246q-135 0 -219 -96t-84 -277v-504q0 -20 -21 -20h-119q-20 0 -20 20z" />
    <glyph glyph-name="o" unicode="o" horiz-adv-x="1249" 
d="M270 514q0 -172 98.5 -277.5t256 -105.5t256 105.5t98.5 277.5t-98.5 277.5t-256 105.5t-256 -105.5t-98.5 -277.5zM102 514q0 240 148.5 387.5t374 147.5t374 -147.5t148.5 -387.5t-148.5 -387t-374 -147t-374 147t-148.5 387z" />
    <glyph glyph-name="p" unicode="p" horiz-adv-x="1220" 
d="M307 514q0 -170 88 -276.5t240 -106.5t233.5 104.5t81.5 278.5t-82 278.5t-234 104.5t-239.5 -106.5t-87.5 -276.5zM164 -385v1393q0 20 20 20h119q20 0 21 -20v-97q126 137 334 137t334 -147t126 -387t-126 -387t-326 -147t-342 139v-504q0 -20 -21 -21h-119
q-20 1 -20 21z" />
    <glyph glyph-name="q" unicode="q" horiz-adv-x="1220" 
d="M270 514q0 -174 82 -278.5t234 -104.5t239.5 106.5t87.5 276.5t-87.5 276.5t-239.5 106.5t-234 -104.5t-82 -278.5zM102 514q0 240 126 387.5t334 147.5t335 -138v97q0 20 21 20h118q20 0 21 -20v-1393q0 -20 -21 -21h-118q-20 0 -21 21v504q-143 -139 -343 -139
t-326 147t-126 387z" />
    <glyph glyph-name="r" unicode="r" horiz-adv-x="884" 
d="M164 20v988q0 20 20 20h119q20 0 21 -20v-113q113 154 299 154q72 0 170 -33q23 -8 24 -37v-123q0 -23 -22 -22q-125 63 -228 63t-173 -91t-70 -228v-558q0 -20 -21 -20h-119q-20 0 -20 20z" />
    <glyph glyph-name="s" unicode="s" horiz-adv-x="1024" 
d="M84 313q0 20 20 21h132q18 0 20 -21q12 -88 81 -135t185 -47q238 0 238 150q0 76 -67.5 112.5t-242.5 64.5t-257 96.5t-82 203.5t110.5 213t279.5 78t272.5 -80t121.5 -215q0 -20 -21 -21h-114q-14 0 -21 21q-23 72 -90 107.5t-162 35.5t-156 -34.5t-61 -104.5t63.5 -106
t186.5 -57t181.5 -39.5t142.5 -67.5t84 -194t-114 -229.5t-297 -84.5t-308 95t-125 238z" />
    <glyph glyph-name="t" unicode="t" horiz-adv-x="860" 
d="M53 897v111q0 20 21 20h182v295q0 20 20 20h119q20 0 21 -20v-295h340q20 0 20 -20v-111q0 -20 -20 -20h-340v-572q0 -174 162 -174q109 0 194 31q8 4 14 4q14 0 15 -21v-96q0 -29 -17 -35q-92 -34 -228 -34t-218 82.5t-82 228.5v586h-182q-21 0 -21 20z" />
    <glyph glyph-name="u" unicode="u" 
d="M147 352v656q0 20 21 20h119q20 0 20 -20v-631q0 -246 234 -246q135 0 219 96.5t84 276.5v504q0 20 20 20h119q20 0 21 -20v-988q0 -20 -21 -20h-119q-20 0 -20 20v117q-131 -158 -340 -157q-164 0 -260.5 98t-96.5 274z" />
    <glyph glyph-name="v" unicode="v" horiz-adv-x="995" 
d="M20 1010q0 18 19 18h137q23 0 29 -20l293 -805l293 805q6 20 28 20h137q18 0 18 -14t-1 -19l-379 -975q-8 -20 -25 -20h-143q-16 0 -25 20l-378 975q-3 5 -3 15z" />
    <glyph glyph-name="w" unicode="w" horiz-adv-x="1527" 
d="M25 1014q0 14 16 14h141q23 0 29 -20l225 -799l228 749q6 20 22 21h156q16 0 22 -21l228 -749l225 799q6 20 29 20h141q16 0 16 -14q0 -8 -2 -17l-313 -977q-4 -20 -27 -20h-145q-20 0 -27 20l-225 752l-225 -752q-6 -20 -27 -20h-145q-23 0 -27 20l-313 977q-2 9 -2 17z
" />
    <glyph glyph-name="x" unicode="x" horiz-adv-x="995" 
d="M37 0q-12 0 -12 8t6 19l370 512l-333 462q-14 27 10 27h145q18 0 29 -14l246 -344l245 344q10 14 29 14h146q14 0 14 -14q0 -4 -4 -13l-334 -462l371 -512q6 -11 6 -19t-13 -8h-155q-16 0 -29 20l-276 390l-277 -390q-12 -20 -28 -20h-156z" />
    <glyph glyph-name="y" unicode="y" horiz-adv-x="991" 
d="M25 1012q0 16 16 16h147q20 0 27 -20l303 -783l258 783q6 20 27 20h141q26 0 14 -29l-374 -1099q-61 -180 -146.5 -253t-208.5 -73q-80 0 -151 33q-20 12 -21 33v110q1 20 13 20t55 -22t109 -22q134 0 204 260l-409 1009q-4 13 -4 17z" />
    <glyph glyph-name="z" unicode="z" horiz-adv-x="989" 
d="M68 20v111q0 14 12 31l598 715h-563q-20 0 -21 20v111q0 20 21 20h737q20 0 20 -20v-111q0 -20 -16 -43l-588 -702h623q20 0 20 -21v-111q0 -20 -20 -20h-803q-20 0 -20 20z" />
    <glyph glyph-name="braceleft" unicode="{" horiz-adv-x="794" 
d="M63 453v122q0 20 21 21h53q129 0 129 135v303q0 213 66.5 306.5t238.5 93.5h97q20 0 20 -21v-123q0 -20 -20 -20h-93q-74 0 -105.5 -52.5t-31.5 -160.5v-359q0 -141 -129 -184q129 -43 129 -184v-359q0 -109 32 -161t105 -52h93q20 0 20 -20v-123q0 -20 -20 -21h-97
q-172 0 -238.5 93.5t-66.5 306.5v303q0 135 -129 135h-53q-21 1 -21 21z" />
    <glyph glyph-name="bar" unicode="|" horiz-adv-x="516" 
d="M172 -184v1597q0 20 21 21h131q20 0 20 -21v-1597q0 -20 -20 -21h-131q-21 1 -21 21z" />
    <glyph glyph-name="braceright" unicode="}" horiz-adv-x="794" 
d="M106 -262q0 20 21 20h92q74 0 105.5 52.5t31.5 160.5v359q0 141 129 184q-129 43 -129 184v359q0 109 -31.5 161t-105.5 52h-92q-20 0 -21 20v123q0 20 21 21h96q172 0 238.5 -93.5t66.5 -306.5v-303q0 -135 129 -135h54q20 0 20 -21v-122q0 -20 -20 -21h-54
q-129 0 -129 -135v-303q0 -213 -66.5 -306.5t-238.5 -93.5h-96q-20 0 -21 21v123z" />
    <glyph glyph-name="asciitilde" unicode="~" horiz-adv-x="1112" 
d="M100 724q0 10 32 32t101 42.5t141 20.5t189 -42t192 -42t152 51q22 11 35 -12l68 -102q2 -4 2 -13t-32 -32t-101 -43.5t-141 -20.5t-189 42t-192 42t-152 -51q-9 -4 -17 -4t-18 16l-68 103q-2 4 -2 13z" />
    <glyph glyph-name="uni00A0" unicode="&#xa0;" horiz-adv-x="522" 
 />
    <glyph glyph-name="exclamdown" unicode="&#xa1;" horiz-adv-x="659" 
d="M223 -385v997q0 20 21 21h131q20 0 20 -21v-997q0 -20 -20 -21h-131q-21 1 -21 21zM207 844v164q0 20 20 20h164q20 0 21 -20v-164q0 -20 -21 -21h-164q-20 1 -20 21z" />
    <glyph glyph-name="cent" unicode="&#xa2;" horiz-adv-x="1161" 
d="M270 716.5q0 -149.5 64.5 -246.5t179.5 -126v743q-115 -29 -179.5 -125t-64.5 -245.5zM102 717q0 207 112 350t300 176v170q0 20 21 21h131q20 0 20 -21v-166q150 -20 247 -109t134 -229q2 -8 2 -20t-14 -12h-125q-23 0 -29 18q-53 162 -215 197v-750q162 35 215 197
q6 18 29 18h125q14 0 14 -12.5t-2 -20.5q-37 -141 -134 -230t-247 -108v-166q0 -20 -20 -20h-131q-20 0 -21 20v168q-188 33 -300 177.5t-112 351.5z" />
    <glyph glyph-name="sterling" unicode="&#xa3;" horiz-adv-x="1204" 
d="M90 657v119q0 20 21 21h114q-41 109 -41 219q0 197 122 317.5t316 120.5t315.5 -117.5t121.5 -287.5q0 -20 -21 -21h-131q-20 0 -20 21q-4 100 -78 170.5t-193 70.5t-189.5 -71.5t-70.5 -202.5q0 -78 27 -142.5t31 -76.5h420q20 0 20 -21v-119q0 -20 -20 -20h-385
q4 -49 4 -78q0 -215 -136 -395h760q20 0 21 -21v-123q0 -20 -21 -20h-921q-20 0 -21 20v144q0 18 17 41q76 98 102.5 168.5t26.5 155.5t-5 108h-165q-21 0 -21 20z" />
    <glyph glyph-name="currency" unicode="&#xa4;" horiz-adv-x="1105" 
d="M307 538.5q0 -116.5 67.5 -187t178.5 -70.5t178.5 70.5t67.5 187t-67.5 187.5t-178.5 71t-178.5 -71t-67.5 -187.5zM156 538.5q0 133.5 63 227.5l-98 98q-14 14 0 29l78 78q14 14 28 0l99 -99q98 64 225 64t229 -64l99 99q14 14 28 0l78 -78q14 -14 0 -29l-98 -98
q63 -100 63 -227t-63 -228l98 -98q14 -14 0 -29l-78 -78q-14 -14 -28 0l-99 99q-96 -63 -228 -63t-226 63l-99 -99q-14 -14 -28 0l-78 78q-14 14 0 29l98 98q-63 94 -63 227.5z" />
    <glyph glyph-name="yen" unicode="&#xa5;" horiz-adv-x="1118" 
d="M195 1434q16 0 22 -17l342 -680l342 680q6 16 23 17h163q18 0 13 -21l-373 -725h289q20 0 20 -20v-119q0 -20 -20 -21h-371v-137h330q20 0 20 -20v-119q0 -20 -20 -21h-330v-211q0 -20 -20 -20h-131q-20 0 -21 20v211h-313q-20 0 -21 21v119q0 20 21 20h313v137h-354
q-20 0 -21 21v119q0 20 21 20h272l-373 725q-6 20 13 21h164z" />
    <glyph glyph-name="brokenbar" unicode="&#xa6;" horiz-adv-x="516" 
d="M172 655v758q0 20 21 21h131q20 0 20 -21v-758q0 -20 -20 -20h-131q-21 0 -21 20zM172 373q0 20 21 20h131q20 0 20 -20v-758q0 -20 -20 -21h-131q-20 0 -21 21v758z" />
    <glyph glyph-name="section" unicode="&#xa7;" horiz-adv-x="1030" 
d="M279 617q0 -60 64.5 -114t270.5 -169l68 -39q53 55 53 115t-64.5 115t-271.5 169l-67 39q-53 -56 -53 -116zM92 -41q0 20 21 21h131q20 0 20 -21q6 -100 71.5 -160.5t175.5 -60.5t174.5 58.5t64.5 146.5t-67 149.5t-242 156.5t-255 172t-80 197t89 222q-102 102 -103 239
q0 170 117 272.5t298 102.5t298 -112.5t117 -272.5q0 -20 -21 -20h-131q-20 0 -20 20q-6 100 -72 160.5t-176 60.5t-174 -58t-64 -146t66 -150t242 -157t255.5 -172t79.5 -197t-88 -222q102 -102 103 -239q0 -170 -117 -272.5t-298 -102.5t-298 112.5t-117 272.5z" />
    <glyph glyph-name="dieresis" unicode="&#xa8;" horiz-adv-x="872" 
d="M504 1249v164q0 20 20 21h164q20 0 21 -21v-164q0 -20 -21 -20h-164q-20 0 -20 20zM164 1249v164q0 20 20 21h164q20 0 21 -21v-164q0 -20 -21 -20h-164q-20 0 -20 20z" />
    <glyph glyph-name="copyright" unicode="&#xa9;" horiz-adv-x="1638" 
d="M389 717q0 225 128 351t294 126t276.5 -83t137.5 -222q0 -20 -23 -21h-49q-23 0 -29 21q-25 98 -104.5 158.5t-207.5 60.5t-226.5 -104.5t-98.5 -286.5t98.5 -286.5t226.5 -104.5t208 60t104 159q6 20 29 20h49q23 0 23 -20q-27 -139 -137.5 -222t-276.5 -83t-294 126
t-128 351zM205 717q0 -207 92 -359.5t228.5 -222t294 -69.5t293.5 69.5t228.5 222t92.5 359.5t-92.5 359.5t-228.5 222t-293.5 69.5t-294 -69.5t-228.5 -222t-92 -359.5zM106 717q0 170 62.5 313.5t164 233.5t227.5 140t259 50t259 -50t227.5 -140t164 -233.5t62.5 -313.5
t-62.5 -313.5t-164 -233.5t-227.5 -140t-259 -50t-259 50t-227.5 140t-164 233.5t-62.5 313.5z" />
    <glyph glyph-name="ordfeminine" unicode="&#xaa;" horiz-adv-x="946" 
d="M219 1051q0 -125 66.5 -206t175 -81t174 81t65.5 206t-65.5 206.5t-174 81.5t-175 -81.5t-66.5 -206.5zM96 1050.5q0 178.5 98 289t252 110.5t242 -102v65q0 20 21 21h77q20 0 21 -21v-723q0 -20 -21 -20h-77q-20 0 -21 20v64q-86 -100 -241 -100t-253 109t-98 287.5z
" />
    <glyph glyph-name="guillemotleft" unicode="&#xab;" horiz-adv-x="1126" 
d="M532 504v114q0 18 21 37l436 404q6 6 12 6q12 0 13 -14v-172q0 -20 -15 -33l-307 -285l307 -285q14 -12 15 -32v-172q0 -14 -10 -14t-15 5l-436 404q-21 19 -21 37zM96 504v114q0 18 21 37l436 404q6 6 12 6q12 0 13 -14v-172q0 -20 -15 -33l-307 -285l307 -285
q14 -12 15 -32v-172q0 -14 -10 -14t-15 5l-436 404q-21 19 -21 37z" />
    <glyph glyph-name="logicalnot" unicode="&#xac;" horiz-adv-x="1142" 
d="M131 680v111q0 20 21 20h806q20 0 21 -20v-410q0 -20 -21 -21h-118q-20 0 -21 21v278h-667q-21 1 -21 21z" />
    <glyph glyph-name="uni00AD" unicode="&#xad;" horiz-adv-x="1052" 
d="M133 641v119q0 20 21 20h745q20 0 21 -20v-119q0 -20 -21 -20h-745q-21 0 -21 20z" />
    <glyph glyph-name="registered" unicode="&#xae;" horiz-adv-x="1638" 
d="M635 750h217q184 0 184 176t-184 176h-217v-352zM537 272v893q0 23 22 23h279q145 0 221 -71t76 -177t-51.5 -173t-137.5 -91l201 -404q4 -8 4 -15t-12 -7h-58q-25 0 -32 18l-201 396h-213v-392q0 -23 -23 -22h-53q-22 -1 -22 22zM205 717q0 -207 92 -359.5t228.5 -222
t294 -69.5t293.5 69.5t228.5 222t92.5 359.5t-92.5 359.5t-228.5 222t-293.5 69.5t-294 -69.5t-228.5 -222t-92 -359.5zM106 717q0 170 62.5 313.5t164 233.5t227.5 140t259 50t259 -50t227.5 -140t164 -233.5t62.5 -313.5t-62.5 -313.5t-164 -233.5t-227.5 -140t-259 -50
t-259 50t-227.5 140t-164 233.5t-62.5 313.5z" />
    <glyph glyph-name="macron" unicode="&#xaf;" horiz-adv-x="610" 
d="M92 1241v102q0 20 21 21h385q20 0 20 -21v-102q0 -20 -20 -20h-385q-21 0 -21 20z" />
    <glyph glyph-name="degree" unicode="&#xb0;" horiz-adv-x="921" 
d="M246 1106q0 -100 60.5 -160.5t155.5 -60.5t154.5 59.5t59.5 161.5t-59.5 161.5t-154.5 59.5t-155.5 -60.5t-60.5 -160.5zM102 1106q0 154 101.5 251t257 97t257 -97t101.5 -251t-101.5 -251t-257 -97t-257 97t-101.5 251z" />
    <glyph glyph-name="plusminus" unicode="&#xb1;" horiz-adv-x="1171" 
d="M133 668v118q0 20 21 21h352v352q0 20 20 21h119q20 0 21 -21v-352h352q20 0 20 -21v-118q0 -20 -20 -21h-352v-352q0 -20 -21 -21h-119q-20 0 -20 21v352h-352q-21 1 -21 21zM133 20v119q0 20 21 21h864q20 0 20 -21v-119q0 -20 -20 -20h-864q-21 0 -21 20z" />
    <glyph glyph-name="twosuperior" unicode="&#xb2;" horiz-adv-x="724" 
d="M100 688v62q0 18 13 28l317 275q78 66 78 151q0 57 -39 94t-101 37t-97 -37.5t-44 -95.5q-2 -20 -20 -20h-80q-20 0 -21 20q2 102 74 173t190 71t187.5 -70.5t69.5 -169.5q0 -133 -119 -235l-229 -193h344q20 0 20 -20v-70q0 -20 -20 -20h-502q-21 0 -21 20z" />
    <glyph glyph-name="threesuperior" unicode="&#xb3;" horiz-adv-x="729" 
d="M84 887q0 20 20 20h80q18 0 21 -20q25 -121 145 -121q68 0 111 34t43 92t-39 90t-107 32h-57q-20 0 -20 20v70q0 20 20 20h41q133 0 133 113q0 43 -36 74.5t-89 31.5q-109 0 -125 -104q-2 -16 -20 -16h-74q-20 0 -20 18q4 90 70.5 147.5t172.5 57.5t171 -56t65 -156
t-92 -155q125 -61 125 -188q0 -102 -79 -169t-193.5 -67t-190.5 66t-76 166z" />
    <glyph glyph-name="acute" unicode="&#xb4;" horiz-adv-x="776" 
d="M197 1147q0 4 2 8l141 258q12 20 31 21h194q15 0 15 -8t-5 -13l-210 -260q-16 -18 -37 -18h-119q-12 0 -12 12z" />
    <glyph glyph-name="mu" unicode="&#xb5;" 
d="M147 -385v1393q0 20 21 20h119q20 0 20 -20v-631q0 -246 234 -246q135 0 219 96.5t84 276.5v504q0 20 20 20h119q20 0 21 -20v-988q0 -20 -21 -20h-119q-20 0 -20 20v117q-131 -158 -340 -157q-115 0 -197 47v-412q0 -20 -20 -21h-119q-21 1 -21 21z" />
    <glyph glyph-name="mu" unicode="&#x3bc;" 
d="M147 -385v1393q0 20 21 20h119q20 0 20 -20v-631q0 -246 234 -246q135 0 219 96.5t84 276.5v504q0 20 20 20h119q20 0 21 -20v-988q0 -20 -21 -20h-119q-20 0 -20 20v117q-131 -158 -340 -157q-115 0 -197 47v-412q0 -20 -20 -21h-119q-21 1 -21 21z" />
    <glyph glyph-name="paragraph" unicode="&#xb6;" horiz-adv-x="1298" 
d="M72 1054q0 175 110.5 277.5t306.5 102.5h732q20 0 20 -21v-123q0 -20 -20 -20h-148v-1454q0 -20 -20 -21h-131q-20 0 -21 21v1454h-190v-1454q0 -20 -21 -21h-131q-20 0 -20 21v860h-50q-197 0 -307 101.5t-110 276.5z" />
    <glyph glyph-name="periodcentered" unicode="&#xb7;" horiz-adv-x="593" 
d="M197 639v156q0 20 20 20h156q20 0 20 -20v-156q0 -20 -20 -21h-156q-20 1 -20 21z" />
    <glyph glyph-name="cedilla" unicode="&#xb8;" horiz-adv-x="557" 
d="M72 -326q0 20 20 21q6 0 55.5 -11.5t122.5 -11.5q109 0 109 63.5t-107 63.5q-52 0 -84 -8t-39 -8t-14 6l-26 27q-7 7 0 24l69 217q6 20 21 21h90q27 0 16 -21l-78 -182q51 14 122 14t118 -39.5t47 -105.5q0 -170 -229 -170q-106 0 -193 20q-20 6 -20 21v59z" />
    <glyph glyph-name="onesuperior" unicode="&#xb9;" horiz-adv-x="454" 
d="M49 1225v86q0 12 14 20l173 94q16 8 30 9h47q20 0 21 -21v-725q0 -20 -21 -20h-73q-20 0 -21 20v600l-135 -74q-10 -6 -22 -6t-13 17z" />
    <glyph glyph-name="ordmasculine" unicode="&#xba;" horiz-adv-x="946" 
d="M219 1051q0 -125 72.5 -206t182.5 -81t181.5 81t71.5 206t-71.5 206.5t-181.5 81.5t-182.5 -81.5t-72.5 -206.5zM96 1050.5q0 178.5 106.5 289t270.5 110.5t270.5 -110.5t106.5 -289t-106.5 -288t-270.5 -109.5t-270.5 109.5t-106.5 288z" />
    <glyph glyph-name="guillemotright" unicode="&#xbb;" horiz-adv-x="1126" 
d="M549 72v172q0 20 14 32l307 285l-307 285q-14 12 -14 33v172q0 14 12 14q6 0 12 -6l437 -404q20 -18 20 -37v-114q0 -18 -20 -37l-437 -404q-6 -5 -15 -5t-9 14zM113 72v172q0 20 14 32l307 285l-307 285q-14 12 -14 33v172q0 14 12 14q6 0 12 -6l436 -404q20 -18 21 -37
v-114q0 -18 -21 -37l-436 -404q-6 -5 -15 -5t-9 14z" />
    <glyph glyph-name="onequarter" unicode="&#xbc;" horiz-adv-x="1642" 
d="M1255 256v313l-223 -313h223zM891 166v57q0 12 8 25l361 504q10 14 22 14h68q20 0 20 -21v-489h98q20 0 21 -20v-70q0 -20 -21 -21h-98v-125q0 -20 -20 -20h-74q-20 0 -21 20v125h-344q-20 1 -20 21zM236 82l1132 1345q12 16 29 0l55 -47q14 -14 4 -28l-1132 -1346
q-12 -16 -29 0l-55 47q-14 15 -4 29zM135 1225v86q0 12 15 20l172 94q16 8 30 9h47q20 0 21 -21v-725q0 -20 -21 -20h-73q-20 0 -21 20v600l-135 -74q-10 -6 -22 -6t-13 17z" />
    <glyph glyph-name="onehalf" unicode="&#xbd;" horiz-adv-x="1789" 
d="M1104 20v62q0 18 12 29l318 274q78 66 77 152q0 57 -38.5 94t-100.5 37t-97.5 -38t-43.5 -95q-2 -20 -21 -21h-80q-20 0 -20 21q2 102 73.5 172.5t189.5 70.5t187.5 -70.5t69.5 -168.5q0 -133 -119 -236l-229 -192h344q20 0 21 -21v-70q0 -20 -21 -20h-502q-20 0 -20 20z
M236 82l1132 1345q12 16 29 0l55 -47q14 -14 4 -28l-1132 -1346q-12 -16 -29 0l-55 47q-14 15 -4 29zM135 1225v86q0 12 15 20l172 94q16 8 30 9h47q20 0 21 -21v-725q0 -20 -21 -20h-73q-20 0 -21 20v600l-135 -74q-10 -6 -22 -6t-13 17z" />
    <glyph glyph-name="threequarters" unicode="&#xbe;" horiz-adv-x="1679" 
d="M1321 256v313l-223 -313h223zM956 166v57q0 12 9 25l360 504q10 14 23 14h67q20 0 21 -21v-489h98q20 0 20 -20v-70q0 -20 -20 -21h-98v-125q0 -20 -21 -20h-74q-20 0 -20 20v125h-344q-21 1 -21 21zM301 82l1133 1345q12 16 28 0l56 -47q14 -14 4 -28l-1133 -1346
q-12 -16 -29 0l-55 47q-14 15 -4 29zM102 887q0 20 21 20h80q18 0 20 -20q25 -121 146 -121q68 0 110.5 34t42.5 92t-39 90t-106 32h-58q-20 0 -20 20v70q0 20 20 20h41q133 0 134 113q0 43 -36 74.5t-89 31.5q-106 0 -125 -104q-2 -16 -21 -16h-73q-20 0 -21 18
q4 90 70.5 147.5t172.5 57.5t171 -56t65 -156t-92 -155q125 -61 125 -188q0 -102 -79 -169t-193.5 -67t-190.5 66t-76 166z" />
    <glyph glyph-name="questiondown" unicode="&#xbf;" 
d="M467 844v164q0 20 20 20h164q20 0 21 -20v-164q0 -20 -21 -21h-164q-20 1 -20 21zM483 537v75q0 20 21 21h131q20 0 20 -21v-61q0 -90 -35.5 -163t-87 -121t-138.5 -121.5t-87 -178.5q0 -106 69.5 -167.5t184.5 -61.5t192.5 62.5t92.5 179.5q2 20 20 20h127q20 0 21 -20
q-6 -170 -127 -288t-320 -118t-315.5 108.5t-116.5 270.5t123 270l102 88q123 104 123 226z" />
    <glyph glyph-name="Agrave" unicode="&#xc0;" horiz-adv-x="1282" 
d="M408 580h466l-233 647zM342 1832q0 7 14 7h195q18 0 31 -20l141 -258q2 -4 2 -9q0 -12 -12 -12h-119q-20 0 -37 19l-211 260q-4 6 -4 13zM23 20q0 6 2 13l507 1380q6 20 21 21h176q14 0 21 -21l507 -1380q2 -6 3 -13q0 -20 -23 -20h-137q-18 0 -25 20l-141 396h-586
l-141 -396q-6 -20 -25 -20h-137q-22 0 -22 20z" />
    <glyph glyph-name="Aacute" unicode="&#xc1;" horiz-adv-x="1282" 
d="M532 1552q0 4 3 9l141 258q12 20 31 20h194q14 0 14 -7t-4 -13l-211 -260q-16 -18 -36 -19h-119q-13 0 -13 12zM408 580h466l-233 647zM23 20q0 6 2 13l507 1380q6 20 21 21h176q14 0 21 -21l507 -1380q2 -6 3 -13q0 -20 -23 -20h-137q-18 0 -25 20l-141 396h-586
l-141 -396q-6 -20 -25 -20h-137q-22 0 -22 20z" />
    <glyph glyph-name="Acircumflex" unicode="&#xc2;" horiz-adv-x="1282" 
d="M408 580h466l-233 647zM569 1839h115q16 0 31 -16l215 -262q6 -8 3 -14.5t-13 -6.5h-127q-18 0 -37 19l-129 129l-129 -129q-18 -18 -37 -19h-127q-10 0 -13.5 6t3.5 15l215 262q14 16 30 16zM23 20q0 6 2 13l507 1380q6 20 21 21h176q14 0 21 -21l507 -1380q2 -6 3 -13
q0 -20 -23 -20h-137q-18 0 -25 20l-141 396h-586l-141 -396q-6 -20 -25 -20h-137q-22 0 -22 20z" />
    <glyph glyph-name="Atilde" unicode="&#xc3;" horiz-adv-x="1282" 
d="M408 580h466l-233 647zM496 1839q90 0 160.5 -42t119.5 -42t127 51q7 4 17 4t18 -16l57 -86q10 -16 -16 -35q-99 -74 -191 -74t-161.5 42t-118.5 42t-127 -51q-8 -4 -16 -4t-19 17l-57 86q-10 16 16 34q101 74 191 74zM23 20q0 6 2 13l507 1380q6 20 21 21h176
q14 0 21 -21l507 -1380q2 -6 3 -13q0 -20 -23 -20h-137q-18 0 -25 20l-141 396h-586l-141 -396q-6 -20 -25 -20h-137q-22 0 -22 20z" />
    <glyph glyph-name="Adieresis" unicode="&#xc4;" horiz-adv-x="1282" 
d="M694 1655v164q0 20 21 20h164q20 0 20 -20v-164q0 -20 -20 -21h-164q-21 1 -21 21zM408 580h466l-233 647zM354 1655v164q0 20 21 20h164q20 0 20 -20v-164q0 -20 -20 -21h-164q-21 1 -21 21zM23 20q0 6 2 13l507 1380q6 20 21 21h176q14 0 21 -21l507 -1380q2 -6 3 -13
q0 -20 -23 -20h-137q-18 0 -25 20l-141 396h-586l-141 -396q-6 -20 -25 -20h-137q-22 0 -22 20z" />
    <glyph glyph-name="Aring" unicode="&#xc5;" horiz-adv-x="1282" 
d="M547 1708q0 -37 22.5 -59.5t57.5 -22.5t57.5 22.5t22.5 59.5t-22.5 59.5t-57.5 22.5t-57.5 -22.5t-22.5 -59.5zM449 1708q0 76 50 124t128 48t128 -48t50 -124t-50 -124t-128 -48t-128 48t-50 124zM408 580h466l-233 647zM23 20q0 6 2 13l507 1380q6 20 21 21h176
q14 0 21 -21l507 -1380q2 -6 3 -13q0 -20 -23 -20h-137q-18 0 -25 20l-141 396h-586l-141 -396q-6 -20 -25 -20h-137q-22 0 -22 20z" />
    <glyph glyph-name="AE" unicode="&#xc6;" horiz-adv-x="1792" 
d="M768 580v690h-61l-275 -690h336zM23 20q0 6 2 13l555 1380q6 20 20 21h1016q20 0 20 -21v-123q0 -20 -20 -20h-676v-434h614q20 0 21 -21v-123q0 -20 -21 -20h-614v-508h707q20 0 20 -21v-123q0 -20 -20 -20h-859q-20 0 -20 20v396h-401l-158 -396q-6 -20 -25 -20h-139
q-22 0 -22 20z" />
    <glyph glyph-name="Ccedilla" unicode="&#xc7;" horiz-adv-x="1447" 
d="M106 717q0 180 54.5 324.5t194.5 278.5t385 134t415 -135t203 -363q0 -20 -23 -20h-125q-18 0 -24 20q-96 334 -441 334q-197 0 -327.5 -146.5t-130.5 -427t131 -427t327 -146.5q344 0 441 334q6 20 24 21h125q23 0 23 -21q-33 -227 -201 -361t-407 -136l-45 -105
q49 14 121 14t118.5 -39.5t46.5 -105.5q0 -170 -229 -170q-106 0 -193 20q-20 6 -20 21v59q0 20 20 21q6 0 55.5 -11.5t123.5 -11.5q109 0 108.5 63.5t-106.5 63.5q-51 0 -84 -8t-40 -8t-14 6l-26 27q-4 4 -4 8q0 2 4 14l45 154q-225 41 -375 226.5t-150 498.5z" />
    <glyph glyph-name="Egrave" unicode="&#xc8;" horiz-adv-x="1177" 
d="M336 1832q0 7 14 7h195q18 0 30 -20l142 -258q2 -4 2 -9q0 -12 -12 -12h-119q-23 0 -37 19l-211 260q-4 6 -4 13zM154 20v1393q0 20 20 21h827q20 0 21 -21v-123q0 -20 -21 -20h-675v-434h614q20 0 21 -21v-123q0 -20 -21 -20h-614v-508h706q20 0 21 -21v-123
q0 -20 -21 -20h-858q-20 0 -20 20z" />
    <glyph glyph-name="Eacute" unicode="&#xc9;" horiz-adv-x="1196" 
d="M471 1552q0 4 2 9l141 258q12 20 31 20h195q14 0 14 -7t-4 -13l-211 -260q-16 -18 -37 -19h-119q-12 0 -12 12zM172 20v1393q0 20 21 21h827q20 0 20 -21v-123q0 -20 -20 -20h-676v-434h614q20 0 21 -21v-123q0 -20 -21 -20h-614v-508h707q20 0 20 -21v-123
q0 -20 -20 -20h-858q-21 0 -21 20z" />
    <glyph glyph-name="Ecircumflex" unicode="&#xca;" horiz-adv-x="1196" 
d="M553 1839h115q16 0 30 -16l215 -262q6 -8 3 -14.5t-13 -6.5h-127q-18 0 -37 19l-129 129l-129 -129q-18 -18 -37 -19h-127q-10 0 -13 6t3 15l215 262q14 16 31 16zM172 20v1393q0 20 21 21h827q20 0 20 -21v-123q0 -20 -20 -20h-676v-434h614q20 0 21 -21v-123
q0 -20 -21 -20h-614v-508h707q20 0 20 -21v-123q0 -20 -20 -20h-858q-21 0 -21 20z" />
    <glyph glyph-name="Edieresis" unicode="&#xcb;" horiz-adv-x="1177" 
d="M657 1655v164q0 20 21 20h164q20 0 20 -20v-164q0 -20 -20 -21h-164q-21 1 -21 21zM317 1655v164q0 20 21 20h164q20 0 20 -20v-164q0 -20 -20 -21h-164q-21 1 -21 21zM154 20v1393q0 20 20 21h827q20 0 21 -21v-123q0 -20 -21 -20h-675v-434h614q20 0 21 -21v-123
q0 -20 -21 -20h-614v-508h706q20 0 21 -21v-123q0 -20 -21 -20h-858q-20 0 -20 20z" />
    <glyph glyph-name="Igrave" unicode="&#xcc;" horiz-adv-x="516" 
d="M172 20v1393q0 20 21 21h131q20 0 20 -21v-1393q0 -20 -20 -20h-131q-21 0 -21 20zM-18 1832q0 7 14 7h194q18 0 31 -20l141 -258q10 -21 -10 -21h-119q-20 0 -36 19l-211 260q-4 6 -4 13z" />
    <glyph glyph-name="Iacute" unicode="&#xcd;" horiz-adv-x="516" 
d="M172 20v1393q0 20 21 21h131q20 0 20 -21v-1393q0 -20 -20 -20h-131q-21 0 -21 20zM154 1552q0 4 2 9l141 258q12 20 31 20h194q27 0 10 -20l-210 -260q-14 -18 -37 -19h-119q-12 0 -12 12z" />
    <glyph glyph-name="Icircumflex" unicode="&#xce;" horiz-adv-x="516" 
d="M172 20v1393q0 20 21 21h131q20 0 20 -21v-1393q0 -20 -20 -20h-131q-21 0 -21 20zM199 1839h114q16 0 31 -16l215 -262q6 -8 3 -14.5t-13 -6.5h-127q-18 0 -37 19l-129 129l-129 -129q-18 -18 -37 -19h-127q-10 0 -13 6t3 15l215 262q14 16 31 16z" />
    <glyph glyph-name="Idieresis" unicode="&#xcf;" horiz-adv-x="516" 
d="M326 1655v164q0 20 20 20h164q20 0 20 -20v-164q0 -20 -20 -21h-164q-20 1 -20 21zM172 20v1393q0 20 21 21h131q20 0 20 -21v-1393q0 -20 -20 -20h-131q-21 0 -21 20zM-14 1655v164q0 20 20 20h164q20 0 20 -20v-164q0 -20 -20 -21h-164q-20 1 -20 21z" />
    <glyph glyph-name="Eth" unicode="&#xd0;" horiz-adv-x="1386" 
d="M381 164h221q225 0 361.5 138t136.5 414.5t-136.5 415t-361.5 138.5h-221v-473h326q20 0 20 -21v-119q0 -20 -20 -20h-326v-473zM23 657v119q0 20 20 21h166v616q0 20 20 21h398q283 0 468 -186.5t185 -530.5t-185.5 -530.5t-467.5 -186.5h-398q-20 0 -20 20v617h-166
q-20 0 -20 20z" />
    <glyph glyph-name="Ntilde" unicode="&#xd1;" horiz-adv-x="1425" 
d="M574 1839q90 0 160.5 -42t119.5 -42t127 51q8 4 17 4t18 -16l57 -86q10 -16 -16 -35q-99 -74 -191 -74t-161.5 42t-118.5 42t-127 -51q-9 -4 -17 -4t-18 17l-57 86q-10 16 16 34q101 74 191 74zM172 20v1393q0 20 21 21h157q27 0 33 -17l698 -1147v1143q0 20 21 21h131
q20 0 20 -21v-1393q0 -20 -20 -20h-158q-27 0 -33 16l-698 1147v-1143q0 -20 -20 -20h-131q-21 0 -21 20z" />
    <glyph glyph-name="Ograve" unicode="&#xd2;" horiz-adv-x="1572" 
d="M522 1832q0 7 15 7h194q18 0 31 -20l141 -258q2 -4 2 -9q0 -12 -12 -12h-119q-20 0 -37 19l-211 260q-4 6 -4 13zM287 716.5q0 -278.5 143 -426t356 -147.5t356.5 147.5t143.5 426t-143.5 426t-356.5 147.5t-356 -147.5t-143 -426zM106 717q0 178 58.5 321.5t156 232.5
t217 136t248.5 47t249 -47t217.5 -136t155.5 -232.5t58 -321.5t-58 -321.5t-155.5 -232.5t-217.5 -136t-249 -47t-248.5 47t-217 136t-156 232.5t-58.5 321.5z" />
    <glyph glyph-name="Oacute" unicode="&#xd3;" horiz-adv-x="1572" 
d="M639 1552q0 4 2 9l141 258q12 20 31 20h195q14 0 14 -7t-4 -13l-211 -260q-16 -18 -37 -19h-119q-12 0 -12 12zM287 716.5q0 -278.5 143 -426t356 -147.5t356.5 147.5t143.5 426t-143.5 426t-356.5 147.5t-356 -147.5t-143 -426zM106 717q0 178 58.5 321.5t156 232.5
t217 136t248.5 47t249 -47t217.5 -136t155.5 -232.5t58 -321.5t-58 -321.5t-155.5 -232.5t-217.5 -136t-249 -47t-248.5 47t-217 136t-156 232.5t-58.5 321.5z" />
    <glyph glyph-name="Ocircumflex" unicode="&#xd4;" horiz-adv-x="1572" 
d="M729 1839h115q16 0 30 -16l216 -262q6 -8 3 -14.5t-14 -6.5h-127q-18 0 -37 19l-129 129l-129 -129q-18 -18 -36 -19h-127q-25 0 -11 21l215 262q14 16 31 16zM287 716.5q0 -278.5 143 -426t356 -147.5t356.5 147.5t143.5 426t-143.5 426t-356.5 147.5t-356 -147.5
t-143 -426zM106 717q0 178 58.5 321.5t156 232.5t217 136t248.5 47t249 -47t217.5 -136t155.5 -232.5t58 -321.5t-58 -321.5t-155.5 -232.5t-217.5 -136t-249 -47t-248.5 47t-217 136t-156 232.5t-58.5 321.5z" />
    <glyph glyph-name="Otilde" unicode="&#xd5;" horiz-adv-x="1572" 
d="M641 1839q90 0 160.5 -42t120.5 -42t127 51q8 4 17 4t17 -16l58 -86q10 -16 -17 -35q-100 -74 -190 -74t-162 42t-120 42t-126 -51q-8 -4 -16 -4t-18 17l-58 86q-10 16 17 34q100 74 190 74zM287 716.5q0 -278.5 143 -426t356 -147.5t356.5 147.5t143.5 426t-143.5 426
t-356.5 147.5t-356 -147.5t-143 -426zM106 717q0 178 58.5 321.5t156 232.5t217 136t248.5 47t249 -47t217.5 -136t155.5 -232.5t58 -321.5t-58 -321.5t-155.5 -232.5t-217.5 -136t-249 -47t-248.5 47t-217 136t-156 232.5t-58.5 321.5z" />
    <glyph glyph-name="Odieresis" unicode="&#xd6;" horiz-adv-x="1572" 
d="M854 1655v164q0 20 20 20h164q20 0 21 -20v-164q0 -20 -21 -21h-164q-20 1 -20 21zM514 1655v164q0 20 21 20h163q20 0 21 -20v-164q0 -20 -21 -21h-163q-21 1 -21 21zM287 716.5q0 -278.5 143 -426t356 -147.5t356.5 147.5t143.5 426t-143.5 426t-356.5 147.5
t-356 -147.5t-143 -426zM106 717q0 178 58.5 321.5t156 232.5t217 136t248.5 47t249 -47t217.5 -136t155.5 -232.5t58 -321.5t-58 -321.5t-155.5 -232.5t-217.5 -136t-249 -47t-248.5 47t-217 136t-156 232.5t-58.5 321.5z" />
    <glyph glyph-name="multiply" unicode="&#xd7;" horiz-adv-x="1036" 
d="M147 436q0 6 9 15l250 249l-250 250q-15 15 0 29l84 84q8 8 14 8t14 -8l250 -250l250 250q8 8 14 8t15 -8l84 -84q8 -8 8 -14.5t-8 -14.5l-250 -250l250 -249q8 -8 8 -14.5t-8 -14.5l-84 -84q-8 -8 -14.5 -8t-14.5 8l-250 250l-250 -250q-8 -8 -14 -8t-14 8l-84 84
q-9 8 -9 14z" />
    <glyph glyph-name="Oslash" unicode="&#xd8;" horiz-adv-x="1572" 
d="M1286 729q0 291 -172 442l-567 -970q106 -57 239 -58q213 0 356.5 147.5t143.5 438.5zM287 705q0 -291 172 -443l567 971q-106 57 -240 57q-213 0 -356 -147t-143 -438zM106 717q0 178 58.5 321.5t207.5 279.5t414 136q172 0 322 -80l86 148q10 16 29 8l55 -33
q16 -10 8 -29l-88 -151q268 -205 268 -600q0 -178 -58 -321.5t-207 -279.5t-415 -136q-174 0 -321 79l-86 -147q-10 -16 -29 -8l-55 33q-16 10 -8 28l88 152q-269 205 -269 600z" />
    <glyph glyph-name="Ugrave" unicode="&#xd9;" horiz-adv-x="1310" 
d="M391 1832q0 7 15 7h194q18 0 31 -20l141 -258q2 -4 2 -9q0 -12 -12 -12h-119q-20 0 -37 19l-211 260q-4 6 -4 13zM139 496v917q0 20 21 21h131q20 0 20 -21v-895q0 -182 89 -278.5t255 -96.5t255 96.5t89 278.5v895q0 20 21 21h131q20 0 20 -21v-917q0 -240 -145 -378
t-370.5 -138t-371 138t-145.5 378z" />
    <glyph glyph-name="Uacute" unicode="&#xda;" horiz-adv-x="1310" 
d="M526 1552q0 4 2 9l142 258q12 20 30 20h195q14 0 14 -7t-4 -13l-211 -260q-14 -18 -37 -19h-118q-13 0 -13 12zM139 496v917q0 20 21 21h131q20 0 20 -21v-895q0 -182 89 -278.5t255 -96.5t255 96.5t89 278.5v895q0 20 21 21h131q20 0 20 -21v-917q0 -240 -145 -378
t-370.5 -138t-371 138t-145.5 378z" />
    <glyph glyph-name="Ucircumflex" unicode="&#xdb;" horiz-adv-x="1310" 
d="M598 1839h115q16 0 30 -16l215 -262q6 -8 3 -14.5t-13 -6.5h-127q-18 0 -37 19l-129 129l-129 -129q-18 -18 -37 -19h-127q-10 0 -13 6t3 15l215 262q14 16 31 16zM139 496v917q0 20 21 21h131q20 0 20 -21v-895q0 -182 89 -278.5t255 -96.5t255 96.5t89 278.5v895
q0 20 21 21h131q20 0 20 -21v-917q0 -240 -145 -378t-370.5 -138t-371 138t-145.5 378z" />
    <glyph glyph-name="Udieresis" unicode="&#xdc;" horiz-adv-x="1310" 
d="M723 1655v164q0 20 20 20h164q20 0 21 -20v-164q0 -20 -21 -21h-164q-20 1 -20 21zM383 1655v164q0 20 20 20h164q20 0 21 -20v-164q0 -20 -21 -21h-164q-20 1 -20 21zM139 496v917q0 20 21 21h131q20 0 20 -21v-895q0 -182 89 -278.5t255 -96.5t255 96.5t89 278.5v895
q0 20 21 21h131q20 0 20 -21v-917q0 -240 -145 -378t-370.5 -138t-371 138t-145.5 378z" />
    <glyph glyph-name="Yacute" unicode="&#xdd;" horiz-adv-x="1118" 
d="M442 1552q0 4 2 9l142 258q12 20 30 20h195q14 0 14 -7t-4 -13l-211 -260q-16 -18 -37 -19h-118q-13 0 -13 12zM193 1434q16 0 24 -17l342 -680l342 680q8 16 25 17h161q23 0 13 -21l-455 -885v-508q0 -20 -20 -20h-131q-20 0 -21 20v508l-455 885q-10 20 13 21h162z" />
    <glyph glyph-name="Thorn" unicode="&#xde;" horiz-adv-x="1241" 
d="M344 481h371q133 0 196.5 57.5t63.5 178.5t-63.5 178t-196.5 57h-371v-471zM172 20v1393q0 20 21 21h131q20 0 20 -21v-297h344q227 0 347 -104.5t120 -295t-120 -295t-347 -104.5h-344v-297q0 -20 -20 -20h-131q-21 0 -21 20z" />
    <glyph glyph-name="germandbls" unicode="&#xdf;" horiz-adv-x="1277" 
d="M49 897v111q0 20 21 20h153v66q0 154 109.5 257t281.5 103t277.5 -93t105.5 -251q0 -72 -28.5 -127t-92 -104t-63.5 -107t95 -100.5t162 -94t94.5 -109.5t27.5 -132q0 -164 -103.5 -260t-262.5 -96t-261 96t-106 231q0 20 20 21h115q14 0 20 -21q18 -76 73.5 -126
t137.5 -50q199 0 199 201q0 130 -130 195l-110 55q-131 64 -131 190q0 53 29 97t92.5 93.5t63.5 139.5t-59.5 145.5t-166.5 55.5t-168 -64.5t-61 -185.5v-1033q0 -20 -21 -20h-118q-20 0 -21 20v857h-153q-21 0 -21 20z" />
    <glyph glyph-name="agrave" unicode="&#xe0;" horiz-adv-x="1103" 
d="M279 1426q0 7 14 8h194q18 0 31 -21l141 -258q10 -20 -10 -20h-119q-23 0 -36 18l-211 260q-4 6 -4 13zM540 496q-274 0 -274 -180q0 -185 234 -185q120 0 211.5 85t91.5 235q-131 45 -263 45zM803 127q-105 -147 -355 -147q-128 0 -239 85.5t-111 244.5t117 248t299 89
q131 0 289 -45v57q0 115 -64.5 176.5t-183.5 61.5q-180 0 -242 -156q-6 -18 -28 -18h-131q-21 0 -13 33q33 127 138.5 210t280.5 83t289 -99.5t114 -259.5v-493q0 -113 34 -177q4 -8 4 -10q0 -10 -16 -10h-162q-20 0 -20 20v107z" />
    <glyph glyph-name="aacute" unicode="&#xe1;" horiz-adv-x="1103" 
d="M422 1147q0 4 2 8l141 258q12 20 31 21h195q14 0 14 -11q0 -4 -4 -10l-211 -260q-16 -18 -37 -18h-119q-12 0 -12 12zM540 496q-274 0 -274 -180q0 -185 234 -185q120 0 211.5 85t91.5 235q-131 45 -263 45zM803 127q-105 -147 -355 -147q-128 0 -239 85.5t-111 244.5
t117 248t299 89q131 0 289 -45v57q0 115 -64.5 176.5t-183.5 61.5q-180 0 -242 -156q-6 -18 -28 -18h-131q-21 0 -13 33q33 127 138.5 210t280.5 83t289 -99.5t114 -259.5v-493q0 -113 34 -177q4 -8 4 -10q0 -10 -16 -10h-162q-20 0 -20 20v107z" />
    <glyph glyph-name="acircumflex" unicode="&#xe2;" horiz-adv-x="1103" 
d="M540 496q-274 0 -274 -180q0 -185 234 -185q120 0 211.5 85t91.5 235q-131 45 -263 45zM612 1434q16 0 31 -17l215 -262q6 -8 3 -14t-13 -6h-127q-18 0 -37 18l-129 129l-129 -129q-18 -18 -37 -18h-127q-10 0 -13 6t3 14l215 262q14 16 31 17h114zM803 127
q-105 -147 -355 -147q-128 0 -239 85.5t-111 244.5t117 248t299 89q131 0 289 -45v57q0 115 -64.5 176.5t-183.5 61.5q-180 0 -242 -156q-6 -18 -28 -18h-131q-21 0 -13 33q33 127 138.5 210t280.5 83t289 -99.5t114 -259.5v-493q0 -113 34 -177q4 -8 4 -10q0 -10 -16 -10
h-162q-20 0 -20 20v107z" />
    <glyph glyph-name="atilde" unicode="&#xe3;" horiz-adv-x="1103" 
d="M540 496q-274 0 -274 -180q0 -185 234 -185q120 0 211.5 85t91.5 235q-131 45 -263 45zM418 1434q90 0 160.5 -42t119.5 -42t127 51q7 4 17 4t18 -16l58 -86q10 -16 -17 -35q-99 -74 -191 -74t-161.5 42t-118.5 42t-127 -51q-8 -4 -16 -4t-19 16l-57 86q-10 16 16 35
q101 74 191 74zM803 127q-105 -147 -355 -147q-128 0 -239 85.5t-111 244.5t117 248t299 89q131 0 289 -45v57q0 115 -64.5 176.5t-183.5 61.5q-180 0 -242 -156q-6 -18 -28 -18h-131q-21 0 -13 33q33 127 138.5 210t280.5 83t289 -99.5t114 -259.5v-493q0 -113 34 -177
q4 -8 4 -10q0 -10 -16 -10h-162q-20 0 -20 20v107z" />
    <glyph glyph-name="adieresis" unicode="&#xe4;" horiz-adv-x="1103" 
d="M623 1249v164q0 20 20 21h164q20 0 20 -21v-164q0 -20 -20 -20h-164q-20 0 -20 20zM283 1249v164q0 20 20 21h164q20 0 20 -21v-164q0 -20 -20 -20h-164q-20 0 -20 20zM540 496q-274 0 -274 -180q0 -185 234 -185q120 0 211.5 85t91.5 235q-131 45 -263 45zM803 127
q-105 -147 -355 -147q-128 0 -239 85.5t-111 244.5t117 248t299 89q131 0 289 -45v57q0 115 -64.5 176.5t-183.5 61.5q-180 0 -242 -156q-6 -18 -28 -18h-131q-21 0 -13 33q33 127 138.5 210t280.5 83t289 -99.5t114 -259.5v-493q0 -113 34 -177q4 -8 4 -10q0 -10 -16 -10
h-162q-20 0 -20 20v107z" />
    <glyph glyph-name="aring" unicode="&#xe5;" horiz-adv-x="1103" 
d="M477 1302.5q0 -36.5 22.5 -59t57.5 -22.5t57.5 22.5t22.5 59t-22.5 59t-57.5 22.5t-57.5 -22.5t-22.5 -59zM379 1302.5q0 75.5 50 124t128 48.5t128 -48.5t50 -124t-50 -124t-128 -48.5t-128 48.5t-50 124zM540 496q-274 0 -274 -180q0 -185 234 -185q120 0 211.5 85
t91.5 235q-131 45 -263 45zM803 127q-105 -147 -355 -147q-128 0 -239 85.5t-111 244.5t117 248t299 89q131 0 289 -45v57q0 115 -64.5 176.5t-183.5 61.5q-180 0 -242 -156q-6 -18 -28 -18h-131q-21 0 -13 33q33 127 138.5 210t280.5 83t289 -99.5t114 -259.5v-493
q0 -113 34 -177q4 -8 4 -10q0 -10 -16 -10h-162q-20 0 -20 20v107z" />
    <glyph glyph-name="ae" unicode="&#xe6;" horiz-adv-x="1910" 
d="M1314 897q-124 0 -215 -73t-118 -208h661q-25 127 -114.5 204t-213.5 77zM266 316q0 -185 234 -185q120 0 211.5 84t91.5 234q-137 47 -267 47t-200 -45.5t-70 -134.5zM98 309q0 160 117 249t277 89t311 -43v55q0 115 -64.5 176.5t-183.5 61.5q-180 0 -242 -156
q-6 -18 -28 -18h-131q-21 0 -13 33q33 127 138.5 210t275.5 83q123 0 218 -49.5t145 -137.5q150 186 385 186t373.5 -154.5t138.5 -375.5v-33q0 -20 -21 -20h-819q12 -154 102 -244t240 -90q223 0 301 188q6 18 29 19h133q14 0 14 -11t-4 -24q-117 -324 -477 -323
q-281 0 -422 215q-61 -100 -167 -157.5t-252 -57.5t-260 84.5t-114 244.5z" />
    <glyph glyph-name="ccedilla" unicode="&#xe7;" horiz-adv-x="1161" 
d="M102 528q0 219 139.5 370t368.5 151q182 0 300 -92.5t157 -249.5q2 -8 2 -20.5t-14 -12.5h-125q-23 0 -29 18q-33 98 -109.5 151.5t-181.5 53.5q-154 0 -247 -101.5t-93 -281.5t93.5 -281.5t246.5 -101.5q104 0 181 53.5t110 151.5q6 18 29 18h125q14 0 14 -12t-2 -20
q-39 -156 -153.5 -248t-292.5 -94l-46 -105q51 14 122 14t118 -39.5t47 -105.5q0 -170 -229 -170q-106 0 -193 20q-20 6 -20 21v59q0 20 20 21q6 0 55.5 -11.5t122.5 -11.5q109 0 109 63.5t-106 63.5q-51 0 -84 -8t-40 -8t-14 6l-26 27q-4 4 -4 8q0 2 4 14l47 152
q-184 33 -293 176t-109 362z" />
    <glyph glyph-name="egrave" unicode="&#xe8;" horiz-adv-x="1214" 
d="M362 1426q0 7 15 8h194q18 0 31 -21l141 -258q2 -4 2 -8q0 -12 -12 -12h-119q-20 0 -36 18l-211 260q-5 6 -5 13zM615 897q-124 0 -214.5 -73t-117.5 -208h661q-25 127 -115 204t-214 77zM102 512q0 229 145.5 383t368.5 154t361.5 -155t138.5 -376v-33q0 -20 -20 -20
h-822q12 -152 103.5 -243t240.5 -91q223 0 302 188q6 18 28 19h133q22 0 11 -35q-117 -324 -478 -323q-231 0 -371.5 151.5t-140.5 380.5z" />
    <glyph glyph-name="eacute" unicode="&#xe9;" horiz-adv-x="1214" 
d="M455 1147q0 4 2 8l141 258q12 20 31 21h194q25 0 11 -21l-211 -260q-16 -18 -37 -18h-119q-12 0 -12 12zM615 897q-124 0 -214.5 -73t-117.5 -208h661q-25 127 -115 204t-214 77zM102 512q0 229 145.5 383t368.5 154t361.5 -155t138.5 -376v-33q0 -20 -20 -20h-822
q12 -152 103.5 -243t240.5 -91q223 0 302 188q6 18 28 19h133q22 0 11 -35q-117 -324 -478 -323q-231 0 -371.5 151.5t-140.5 380.5z" />
    <glyph glyph-name="ecircumflex" unicode="&#xea;" horiz-adv-x="1214" 
d="M680 1434q16 0 31 -17l215 -262q6 -8 3 -14t-14 -6h-127q-18 0 -36 18l-129 129l-129 -129q-18 -18 -37 -18h-127q-11 0 -14 6t3 14l216 262q14 16 30 17h115zM615 897q-124 0 -214.5 -73t-117.5 -208h661q-25 127 -115 204t-214 77zM102 512q0 229 145.5 383t368.5 154
t361.5 -155t138.5 -376v-33q0 -20 -20 -20h-822q12 -152 103.5 -243t240.5 -91q223 0 302 188q6 18 28 19h133q22 0 11 -35q-117 -324 -478 -323q-231 0 -371.5 151.5t-140.5 380.5z" />
    <glyph glyph-name="edieresis" unicode="&#xeb;" horiz-adv-x="1214" 
d="M682 1249v164q0 20 20 21h164q20 0 21 -21v-164q0 -20 -21 -20h-164q-20 0 -20 20zM342 1249v164q0 20 20 21h164q20 0 21 -21v-164q0 -20 -21 -20h-164q-20 0 -20 20zM615 897q-124 0 -214.5 -73t-117.5 -208h661q-25 127 -115 204t-214 77zM102 512q0 229 145.5 383
t368.5 154t361.5 -155t138.5 -376v-33q0 -20 -20 -20h-822q12 -152 103.5 -243t240.5 -91q223 0 302 188q6 18 28 19h133q22 0 11 -35q-117 -324 -478 -323q-231 0 -371.5 151.5t-140.5 380.5z" />
    <glyph glyph-name="igrave" unicode="&#xec;" horiz-adv-x="438" 
d="M139 20v988q0 20 21 20h119q20 0 20 -20v-988q0 -20 -20 -20h-119q-21 0 -21 20zM-41 1426q0 7 14 8h195q18 0 31 -21l141 -258q2 -4 2 -8q0 -12 -12 -12h-119q-23 0 -37 18l-211 260q-4 6 -4 13z" />
    <glyph glyph-name="iacute" unicode="&#xed;" horiz-adv-x="438" 
d="M139 20v988q0 20 21 20h119q20 0 20 -20v-988q0 -20 -20 -20h-119q-21 0 -21 20zM98 1147q0 4 2 8l142 258q12 20 30 21h195q14 0 14 -11q0 -4 -4 -10l-211 -260q-16 -18 -37 -18h-118q-13 0 -13 12z" />
    <glyph glyph-name="icircumflex" unicode="&#xee;" horiz-adv-x="438" 
d="M139 20v988q0 20 21 20h119q20 0 20 -20v-988q0 -20 -20 -20h-119q-21 0 -21 20zM276 1434q16 0 31 -17l215 -262q6 -8 3 -14t-13 -6h-127q-18 0 -37 18l-129 129l-129 -129q-18 -18 -37 -18h-127q-10 0 -13 6t3 14l215 262q14 16 31 17h114z" />
    <glyph glyph-name="idieresis" unicode="&#xef;" horiz-adv-x="438" 
d="M287 1249v164q0 20 20 21h164q20 0 21 -21v-164q0 -20 -21 -20h-164q-20 0 -20 20zM139 20v988q0 20 21 20h119q20 0 20 -20v-988q0 -20 -20 -20h-119q-21 0 -21 20zM-53 1249v164q0 20 20 21h164q20 0 21 -21v-164q0 -20 -21 -20h-164q-20 0 -20 20z" />
    <glyph glyph-name="eth" unicode="&#xf0;" horiz-adv-x="1191" 
d="M270 514q0 -176 85 -279.5t235 -103.5t241 104.5t91 276.5t-91 278.5t-241 106.5t-235 -103.5t-85 -279.5zM102 514q0 242 134.5 388.5t339.5 146.5t305 -121q-41 162 -160 241l-217 -84q-20 -8 -27 11l-37 96q-8 16 13 27l106 41q-76 27 -194 38q-20 4 -17 29l19 103
q4 18 28 14q215 -25 369 -109l190 76q20 8 27 -10l37 -96q6 -20 -12 -27l-115 -45q98 -98 148.5 -260t50.5 -352q0 -328 -131.5 -484.5t-355.5 -156.5t-362.5 146t-138.5 388z" />
    <glyph glyph-name="ntilde" unicode="&#xf1;" 
d="M448 1434q90 0 161 -42t120 -42t127 51q8 4 17 4t18 -16l57 -86q10 -16 -16 -35q-100 -74 -190 -74t-162 42t-120 42t-126 -51q-8 -4 -16 -4t-19 16l-57 86q-10 16 16 35q100 74 190 74zM164 20v988q0 20 20 20h119q20 0 21 -20v-117q131 158 340 158q164 0 260 -98.5
t96 -274.5v-656q0 -20 -21 -20h-118q-20 0 -21 20v631q0 246 -233 246q-135 0 -219 -96t-84 -277v-504q0 -20 -21 -20h-119q-20 0 -20 20z" />
    <glyph glyph-name="ograve" unicode="&#xf2;" horiz-adv-x="1249" 
d="M365 1426q0 7 14 8h194q18 0 31 -21l141 -258q10 -20 -10 -20h-119q-23 0 -36 18l-211 260q-4 6 -4 13zM270 514q0 -172 98.5 -277.5t256 -105.5t256 105.5t98.5 277.5t-98.5 277.5t-256 105.5t-256 -105.5t-98.5 -277.5zM102 514q0 240 148.5 387.5t374 147.5
t374 -147.5t148.5 -387.5t-148.5 -387t-374 -147t-374 147t-148.5 387z" />
    <glyph glyph-name="oacute" unicode="&#xf3;" horiz-adv-x="1249" 
d="M465 1147q0 4 2 8l141 258q12 20 31 21h195q14 0 14 -11q0 -4 -4 -10l-211 -260q-14 -18 -37 -18h-119q-12 0 -12 12zM270 514q0 -172 98.5 -277.5t256 -105.5t256 105.5t98.5 277.5t-98.5 277.5t-256 105.5t-256 -105.5t-98.5 -277.5zM102 514q0 240 148.5 387.5
t374 147.5t374 -147.5t148.5 -387.5t-148.5 -387t-374 -147t-374 147t-148.5 387z" />
    <glyph glyph-name="ocircumflex" unicode="&#xf4;" horiz-adv-x="1249" 
d="M682 1434q16 0 31 -17l215 -262q6 -8 3 -14t-13 -6h-127q-18 0 -37 18l-129 129l-129 -129q-18 -18 -37 -18h-127q-10 0 -13.5 6t3.5 14l215 262q14 16 30 17h115zM270 514q0 -172 98.5 -277.5t256 -105.5t256 105.5t98.5 277.5t-98.5 277.5t-256 105.5t-256 -105.5
t-98.5 -277.5zM102 514q0 240 148.5 387.5t374 147.5t374 -147.5t148.5 -387.5t-148.5 -387t-374 -147t-374 147t-148.5 387z" />
    <glyph glyph-name="otilde" unicode="&#xf5;" horiz-adv-x="1249" 
d="M479 1434q90 0 161 -42t120 -42t127 51q8 4 17 4t18 -16l57 -86q10 -16 -16 -35q-99 -74 -191 -74t-161 42t-119 42t-127 -51q-9 -4 -17 -4t-18 16l-58 86q-10 16 17 35q100 74 190 74zM270 514q0 -172 98.5 -277.5t256 -105.5t256 105.5t98.5 277.5t-98.5 277.5
t-256 105.5t-256 -105.5t-98.5 -277.5zM102 514q0 240 148.5 387.5t374 147.5t374 -147.5t148.5 -387.5t-148.5 -387t-374 -147t-374 147t-148.5 387z" />
    <glyph glyph-name="odieresis" unicode="&#xf6;" horiz-adv-x="1249" 
d="M692 1249v164q0 20 21 21h164q20 0 20 -21v-164q0 -20 -20 -20h-164q-21 0 -21 20zM352 1249v164q0 20 21 21h164q20 0 20 -21v-164q0 -20 -20 -20h-164q-21 0 -21 20zM270 514q0 -172 98.5 -277.5t256 -105.5t256 105.5t98.5 277.5t-98.5 277.5t-256 105.5t-256 -105.5
t-98.5 -277.5zM102 514q0 240 148.5 387.5t374 147.5t374 -147.5t148.5 -387.5t-148.5 -387t-374 -147t-374 147t-148.5 387z" />
    <glyph glyph-name="divide" unicode="&#xf7;" horiz-adv-x="1171" 
d="M479 852v156q0 20 21 20h155q20 0 21 -20v-156q0 -20 -21 -21h-155q-21 1 -21 21zM479 20v156q0 20 21 21h155q20 0 21 -21v-156q0 -20 -21 -20h-155q-21 0 -21 20zM133 455v118q0 20 21 21h864q20 0 20 -21v-118q0 -20 -20 -21h-864q-21 1 -21 21z" />
    <glyph glyph-name="oslash" unicode="&#xf8;" horiz-adv-x="1249" 
d="M625 131q158 0 256 105.5t98 287.5t-119 289l-381 -655q61 -27 146 -27zM270 504q0 -182 119 -289l381 655q-61 27 -145 27q-158 0 -256.5 -105.5t-98.5 -287.5zM102 514q0 240 148.5 387.5t374.5 147.5q117 0 223 -45l63 108q10 16 29 8l55 -33q18 -12 9 -28l-64 -109
q207 -150 207 -436q0 -240 -148.5 -387t-373.5 -147q-117 0 -224 45l-63 -109q-10 -16 -29 -8l-55 33q-18 12 -8 28l63 109q-207 149 -207 436z" />
    <glyph glyph-name="ugrave" unicode="&#xf9;" 
d="M313 1426q0 7 15 8h194q18 0 31 -21l141 -258q2 -4 2 -8q0 -12 -12 -12h-119q-20 0 -37 18l-211 260q-4 6 -4 13zM147 352v656q0 20 21 20h119q20 0 20 -20v-631q0 -246 234 -246q135 0 219 96.5t84 276.5v504q0 20 20 20h119q20 0 21 -20v-988q0 -20 -21 -20h-119
q-20 0 -20 20v117q-131 -158 -340 -157q-164 0 -260.5 98t-96.5 274z" />
    <glyph glyph-name="uacute" unicode="&#xfa;" 
d="M420 1147q0 4 2 8l141 258q12 20 31 21h194q25 0 11 -21l-211 -260q-14 -18 -37 -18h-119q-12 0 -12 12zM147 352v656q0 20 21 20h119q20 0 20 -20v-631q0 -246 234 -246q135 0 219 96.5t84 276.5v504q0 20 20 20h119q20 0 21 -20v-988q0 -20 -21 -20h-119q-20 0 -20 20
v117q-131 -158 -340 -157q-164 0 -260.5 98t-96.5 274z" />
    <glyph glyph-name="ucircumflex" unicode="&#xfb;" 
d="M635 1434q16 0 31 -17l215 -262q6 -8 3 -14t-14 -6h-127q-18 0 -36 18l-129 129l-129 -129q-18 -18 -37 -18h-127q-11 0 -14 6t3 14l215 262q14 16 31 17h115zM147 352v656q0 20 21 20h119q20 0 20 -20v-631q0 -246 234 -246q135 0 219 96.5t84 276.5v504q0 20 20 20h119
q20 0 21 -20v-988q0 -20 -21 -20h-119q-20 0 -20 20v117q-131 -158 -340 -157q-164 0 -260.5 98t-96.5 274z" />
    <glyph glyph-name="udieresis" unicode="&#xfc;" 
d="M641 1249v164q0 20 21 21h163q20 0 21 -21v-164q0 -20 -21 -20h-163q-21 0 -21 20zM301 1249v164q0 20 21 21h163q20 0 21 -21v-164q0 -20 -21 -20h-163q-21 0 -21 20zM147 352v656q0 20 21 20h119q20 0 20 -20v-631q0 -246 234 -246q135 0 219 96.5t84 276.5v504
q0 20 20 20h119q20 0 21 -20v-988q0 -20 -21 -20h-119q-20 0 -20 20v117q-131 -158 -340 -157q-164 0 -260.5 98t-96.5 274z" />
    <glyph glyph-name="yacute" unicode="&#xfd;" horiz-adv-x="991" 
d="M381 1147q0 4 2 8l141 258q12 20 31 21h195q14 0 14 -11q0 -4 -4 -10l-211 -260q-16 -18 -37 -18h-119q-12 0 -12 12zM25 1012q0 16 16 16h147q20 0 27 -20l303 -783l258 783q6 20 27 20h141q26 0 14 -29l-374 -1099q-61 -180 -146.5 -253t-208.5 -73q-80 0 -151 33
q-20 12 -21 33v110q1 20 13 20t55 -22t109 -22q134 0 204 260l-409 1009q-4 13 -4 17z" />
    <glyph glyph-name="thorn" unicode="&#xfe;" horiz-adv-x="1220" 
d="M307 514q0 -170 88 -276.5t240 -106.5t233.5 104.5t81.5 278.5t-82 278.5t-234 104.5t-239.5 -106.5t-87.5 -276.5zM164 -385v1798q0 20 20 21h119q20 0 21 -21v-504q142 139 342 139t326 -147t126 -387t-126 -387t-334 -147t-334 137v-502q0 -20 -21 -21h-119
q-20 1 -20 21z" />
    <glyph glyph-name="ydieresis" unicode="&#xff;" horiz-adv-x="991" 
d="M563 1249v164q0 20 21 21h164q20 0 20 -21v-164q0 -20 -20 -20h-164q-21 0 -21 20zM223 1249v164q0 20 21 21h164q20 0 20 -21v-164q0 -20 -20 -20h-164q-21 0 -21 20zM25 1012q0 16 16 16h147q20 0 27 -20l303 -783l258 783q6 20 27 20h141q26 0 14 -29l-374 -1099
q-61 -180 -146.5 -253t-208.5 -73q-80 0 -151 33q-20 12 -21 33v110q1 20 13 20t55 -22t109 -22q134 0 204 260l-409 1009q-4 13 -4 17z" />
    <glyph glyph-name="Amacron" unicode="&#x100;" horiz-adv-x="1282" 
d="M428 1647v102q0 20 21 20h385q20 0 20 -20v-102q0 -20 -20 -21h-385q-21 1 -21 21zM408 580h466l-233 647zM23 20q0 6 2 13l507 1380q6 20 21 21h176q14 0 21 -21l507 -1380q2 -6 3 -13q0 -20 -23 -20h-137q-18 0 -25 20l-141 396h-586l-141 -396q-6 -20 -25 -20h-137
q-22 0 -22 20z" />
    <glyph glyph-name="amacron" unicode="&#x101;" horiz-adv-x="1103" 
d="M338 1241v102q0 20 20 21h385q20 0 21 -21v-102q0 -20 -21 -20h-385q-20 0 -20 20zM540 496q-274 0 -274 -180q0 -185 234 -185q120 0 211.5 85t91.5 235q-131 45 -263 45zM803 127q-105 -147 -355 -147q-128 0 -239 85.5t-111 244.5t117 248t299 89q131 0 289 -45v57
q0 115 -64.5 176.5t-183.5 61.5q-180 0 -242 -156q-6 -18 -28 -18h-131q-21 0 -13 33q33 127 138.5 210t280.5 83t289 -99.5t114 -259.5v-493q0 -113 34 -177q4 -8 4 -10q0 -10 -16 -10h-162q-20 0 -20 20v107z" />
    <glyph glyph-name="Abreve" unicode="&#x102;" horiz-adv-x="1282" 
d="M408 580h466l-233 647zM383 1794q0 20 20 21h99q20 0 20 -21q0 -49 32 -81t87 -32t87 32t32 81q0 20 20 21h99q20 0 20 -21q0 -111 -72.5 -179.5t-185.5 -68.5t-185.5 68.5t-72.5 179.5zM23 20q0 6 2 13l507 1380q6 20 21 21h176q14 0 21 -21l507 -1380q2 -6 3 -13
q0 -20 -23 -20h-137q-18 0 -25 20l-141 396h-586l-141 -396q-6 -20 -25 -20h-137q-22 0 -22 20z" />
    <glyph glyph-name="abreve" unicode="&#x103;" horiz-adv-x="1103" 
d="M297 1389q0 20 20 20h99q20 0 20 -20q0 -49 32 -81t87 -32t87 31.5t32 81.5q0 20 20 20h99q20 0 20 -20q0 -111 -72.5 -179.5t-185.5 -68.5t-185.5 68.5t-72.5 179.5zM540 496q-274 0 -274 -180q0 -185 234 -185q120 0 211.5 85t91.5 235q-131 45 -263 45zM803 127
q-105 -147 -355 -147q-128 0 -239 85.5t-111 244.5t117 248t299 89q131 0 289 -45v57q0 115 -64.5 176.5t-183.5 61.5q-180 0 -242 -156q-6 -18 -28 -18h-131q-21 0 -13 33q33 127 138.5 210t280.5 83t289 -99.5t114 -259.5v-493q0 -113 34 -177q4 -8 4 -10q0 -10 -16 -10
h-162q-20 0 -20 20v107z" />
    <glyph glyph-name="Aogonek" unicode="&#x104;" horiz-adv-x="1282" 
d="M408 580h466l-233 647zM23 20q0 6 2 13l507 1380q6 20 21 21h176q14 0 21 -21l507 -1380q5 -13 5 -21t-36 -17t-70 -47t-34 -86t37 -79t103 -31h24q20 0 21 -20v-70q0 -20 -21 -20h-72q-106 0 -175.5 47t-69.5 139q0 55 32.5 102t79.5 76l-147 410h-586l-141 -396
q-6 -20 -25 -20h-137q-22 0 -22 20z" />
    <glyph glyph-name="aogonek" unicode="&#x105;" horiz-adv-x="1103" 
d="M266 316q0 -185 234 -185q120 0 211.5 84t91.5 234q-137 47 -267 47t-200 -45.5t-70 -134.5zM803 127q-105 -147 -355 -147q-128 0 -239 85.5t-111 244.5t117 248t277 89t311 -43v55q0 115 -64.5 176.5t-183.5 61.5q-180 0 -242 -156q-6 -18 -28 -18h-131q-21 0 -13 33
q33 127 138.5 210t280.5 83t289 -99.5t114 -259.5v-493q0 -113 34 -177q2 -4 2 -10t-12 -10q-55 -14 -89 -52t-34 -86t37 -79t103 -31h24q20 0 21 -20v-70q0 -20 -21 -20h-72q-106 0 -175.5 47t-69.5 145t92 166v127z" />
    <glyph glyph-name="Cacute" unicode="&#x106;" horiz-adv-x="1447" 
d="M625 1552q0 4 2 9l141 258q12 20 31 20h194q24 0 11 -20l-211 -260q-14 -18 -37 -19h-119q-12 0 -12 12zM106 717q0 180 54.5 324.5t194.5 278.5t385 134t415 -135t203 -363q0 -20 -23 -20h-125q-18 0 -24 20q-96 334 -441 334q-197 0 -327.5 -146.5t-130.5 -427
t131 -427t327 -146.5q344 0 441 334q6 20 24 21h125q23 0 23 -21q-33 -227 -203 -362t-415 -135t-385 134t-194.5 278.5t-54.5 324.5z" />
    <glyph glyph-name="cacute" unicode="&#x107;" horiz-adv-x="1161" 
d="M463 1147q0 4 2 8l141 258q12 20 31 21h194q25 0 11 -21l-211 -260q-16 -18 -37 -18h-119q-12 0 -12 12zM102 514.5q0 233.5 139.5 384t368.5 150.5q182 0 300 -92.5t157 -249.5q2 -8 2 -20.5t-14 -12.5h-125q-23 0 -29 18q-33 98 -109.5 151.5t-181.5 53.5
q-154 0 -247 -101.5t-93 -281.5t93.5 -281.5t246.5 -101.5q104 0 181 53.5t110 151.5q6 18 29 18h125q14 0 14 -12t-2 -20q-39 -158 -156.5 -250t-300.5 -92q-229 0 -368.5 150.5t-139.5 384z" />
    <glyph glyph-name="Ccircumflex" unicode="&#x108;" horiz-adv-x="1447" 
d="M688 1839h115q16 0 31 -16l215 -262q6 -8 3 -14.5t-14 -6.5h-127q-18 0 -37 19l-129 129l-129 -129q-18 -18 -36 -19h-127q-25 0 -11 21l215 262q14 16 31 16zM106 717q0 180 54.5 324.5t194.5 278.5t385 134t415 -135t203 -363q0 -20 -23 -20h-125q-18 0 -24 20
q-96 334 -441 334q-197 0 -327.5 -146.5t-130.5 -427t131 -427t327 -146.5q344 0 441 334q6 20 24 21h125q23 0 23 -21q-33 -227 -203 -362t-415 -135t-385 134t-194.5 278.5t-54.5 324.5z" />
    <glyph glyph-name="ccircumflex" unicode="&#x109;" horiz-adv-x="1161" 
d="M672 1434q16 0 30 -17l216 -262q6 -8 3 -14t-14 -6h-127q-18 0 -37 18l-129 129l-129 -129q-18 -18 -36 -18h-127q-11 0 -14 6t3 14l215 262q14 16 31 17h115zM102 514.5q0 233.5 139.5 384t368.5 150.5q182 0 300 -92.5t157 -249.5q2 -8 2 -20.5t-14 -12.5h-125
q-23 0 -29 18q-33 98 -109.5 151.5t-181.5 53.5q-154 0 -247 -101.5t-93 -281.5t93.5 -281.5t246.5 -101.5q104 0 181 53.5t110 151.5q6 18 29 18h125q14 0 14 -12t-2 -20q-39 -158 -156.5 -250t-300.5 -92q-229 0 -368.5 150.5t-139.5 384z" />
    <glyph glyph-name="Cdotaccent" unicode="&#x10a;" horiz-adv-x="1443" 
d="M633 1642v177q0 20 20 20h176q20 0 21 -20v-177q0 -20 -21 -20h-176q-20 0 -20 20zM102 717q0 180 54.5 324.5t194.5 278.5t385 134t415 -135t203 -363q0 -20 -23 -20h-125q-18 0 -24 20q-96 334 -441 334q-197 0 -327.5 -146.5t-130.5 -427t131 -427t327 -146.5
q344 0 441 334q6 20 24 21h125q23 0 23 -21q-33 -227 -203 -362t-415 -135t-385 134t-194.5 278.5t-54.5 324.5z" />
    <glyph glyph-name="cdotaccent" unicode="&#x10b;" horiz-adv-x="1161" 
d="M502 1237v176q0 20 20 21h176q20 0 21 -21v-176q0 -20 -21 -20h-176q-20 0 -20 20zM102 514.5q0 233.5 139.5 384t368.5 150.5q182 0 300 -92.5t157 -249.5q2 -8 2 -20.5t-14 -12.5h-125q-23 0 -29 18q-33 98 -109.5 151.5t-181.5 53.5q-154 0 -247 -101.5t-93 -281.5
t93.5 -281.5t246.5 -101.5q104 0 181 53.5t110 151.5q6 18 29 18h125q14 0 14 -12t-2 -20q-39 -158 -156.5 -250t-300.5 -92q-229 0 -368.5 150.5t-139.5 384z" />
    <glyph glyph-name="Ccaron" unicode="&#x10c;" horiz-adv-x="1443" 
d="M449 1839h126q18 0 37 -18l129 -129l129 129q18 18 37 18h127q10 0 13.5 -6t-3.5 -14l-215 -263q-14 -16 -30 -16h-115q-16 0 -31 16l-215 263q-6 8 -3 14t14 6zM102 717q0 180 54.5 324.5t194.5 278.5t385 134t415 -135t203 -363q0 -20 -23 -20h-125q-18 0 -24 20
q-96 334 -441 334q-197 0 -327.5 -146.5t-130.5 -427t131 -427t327 -146.5q344 0 441 334q6 20 24 21h125q23 0 23 -21q-33 -227 -203 -362t-415 -135t-385 134t-194.5 278.5t-54.5 324.5z" />
    <glyph glyph-name="ccaron" unicode="&#x10d;" horiz-adv-x="1161" 
d="M317 1434h127q18 0 37 -19l129 -129l129 129q18 18 37 19h127q10 0 13.5 -6.5t-3.5 -14.5l-215 -262q-14 -16 -30 -16h-115q-16 0 -31 16l-215 262q-6 8 -3 14.5t13 6.5zM102 514.5q0 233.5 139.5 384t368.5 150.5q182 0 300 -92.5t157 -249.5q2 -8 2 -20.5t-14 -12.5
h-125q-23 0 -29 18q-33 98 -109.5 151.5t-181.5 53.5q-154 0 -247 -101.5t-93 -281.5t93.5 -281.5t246.5 -101.5q104 0 181 53.5t110 151.5q6 18 29 18h125q14 0 14 -12t-2 -20q-39 -158 -156.5 -250t-300.5 -92q-229 0 -368.5 150.5t-139.5 384z" />
    <glyph glyph-name="Dcaron" unicode="&#x10e;" horiz-adv-x="1349" 
d="M344 164h221q225 0 361.5 138t136.5 414.5t-136 415t-362 138.5h-221v-1106zM258 1839h127q18 0 37 -18l129 -129l129 129q18 18 37 18h127q10 0 13 -6t-3 -14l-215 -263q-14 -16 -31 -16h-114q-16 0 -31 16l-215 263q-6 8 -3 14t13 6zM172 20v1393q0 20 21 21h397
q283 0 468 -186.5t185 -530.5t-185.5 -530.5t-467.5 -186.5h-397q-21 0 -21 20z" />
    <glyph glyph-name="dcaron" unicode="&#x10f;" horiz-adv-x="1490" 
d="M1214 1030v33q0 20 21 20q61 0 82.5 21.5t21.5 89.5v43h-90q-20 0 -20 20v156q0 20 20 21h168q20 0 21 -21v-231q0 -84 -47.5 -128t-124.5 -44h-31q-21 0 -21 20zM270 514q0 -174 82 -278.5t234 -104.5t239.5 106.5t87.5 276.5t-87.5 276.5t-239.5 106.5t-234 -104.5
t-82 -278.5zM102 514q0 240 126 387.5t326 147.5t343 -140v504q0 20 21 21h118q20 0 21 -21v-1393q0 -20 -21 -20h-118q-20 0 -21 20v97q-127 -137 -335 -137t-334 147t-126 387z" />
    <glyph glyph-name="Dcroat" unicode="&#x110;" horiz-adv-x="1386" 
d="M381 164h221q225 0 361.5 138t136.5 414.5t-136.5 415t-361.5 138.5h-221v-473h326q20 0 20 -21v-119q0 -20 -20 -20h-326v-473zM23 657v119q0 20 20 21h166v616q0 20 20 21h398q283 0 468 -186.5t185 -530.5t-185.5 -530.5t-467.5 -186.5h-398q-20 0 -20 20v617h-166
q-20 0 -20 20z" />
    <glyph glyph-name="dcroat" unicode="&#x111;" horiz-adv-x="1220" 
d="M270 514q0 -174 82 -278.5t234 -104.5t239.5 106.5t87.5 276.5t-87.5 276.5t-239.5 106.5t-234 -104.5t-82 -278.5zM102 514q0 240 126 387.5t326 147.5t343 -140v217h-279q-20 0 -20 21v106q0 20 20 21h279v139q0 20 21 21h118q20 0 21 -21v-139h129q20 0 20 -21v-106
q0 -20 -20 -21h-129v-1106q0 -20 -21 -20h-118q-20 0 -21 20v97q-127 -137 -335 -137t-334 147t-126 387z" />
    <glyph glyph-name="Emacron" unicode="&#x112;" horiz-adv-x="1196" 
d="M424 1647v102q0 20 20 20h385q20 0 21 -20v-102q0 -20 -21 -21h-385q-20 1 -20 21zM172 20v1393q0 20 21 21h827q20 0 20 -21v-123q0 -20 -20 -20h-676v-434h614q20 0 21 -21v-123q0 -20 -21 -20h-614v-508h707q20 0 20 -21v-123q0 -20 -20 -20h-858q-21 0 -21 20z" />
    <glyph glyph-name="emacron" unicode="&#x113;" horiz-adv-x="1214" 
d="M406 1241v102q0 20 20 21h385q20 0 20 -21v-102q0 -20 -20 -20h-385q-20 0 -20 20zM615 897q-124 0 -214.5 -73t-117.5 -208h661q-25 127 -115 204t-214 77zM102 512q0 229 145.5 383t368.5 154t361.5 -155t138.5 -376v-33q0 -20 -20 -20h-822q12 -152 103.5 -243
t240.5 -91q223 0 302 188q6 18 28 19h133q22 0 11 -35q-117 -324 -478 -323q-231 0 -371.5 151.5t-140.5 380.5z" />
    <glyph glyph-name="Ebreve" unicode="&#x114;" horiz-adv-x="1196" 
d="M365 1794q0 20 20 21h98q20 0 21 -21q0 -49 31.5 -81t87 -32t87 32t31.5 81q0 20 21 21h98q20 0 21 -21q0 -111 -73 -179.5t-185.5 -68.5t-185 68.5t-72.5 179.5zM172 20v1393q0 20 21 21h827q20 0 20 -21v-123q0 -20 -20 -20h-676v-434h614q20 0 21 -21v-123
q0 -20 -21 -20h-614v-508h707q20 0 20 -21v-123q0 -20 -20 -20h-858q-21 0 -21 20z" />
    <glyph glyph-name="ebreve" unicode="&#x115;" horiz-adv-x="1214" 
d="M358 1389q0 20 21 20h98q20 0 21 -20q0 -49 31.5 -81t87 -32t87 31.5t31.5 81.5q0 20 21 20h98q20 0 20 -20q0 -111 -72.5 -179.5t-185 -68.5t-185.5 68.5t-73 179.5zM615 897q-124 0 -214.5 -73t-117.5 -208h661q-25 127 -115 204t-214 77zM102 512q0 229 145.5 383
t368.5 154t361.5 -155t138.5 -376v-33q0 -20 -20 -20h-822q12 -152 103.5 -243t240.5 -91q223 0 302 188q6 18 28 19h133q22 0 11 -35q-117 -324 -478 -323q-231 0 -371.5 151.5t-140.5 380.5z" />
    <glyph glyph-name="Edotaccent" unicode="&#x116;" horiz-adv-x="1196" 
d="M504 1642v177q0 20 20 20h176q20 0 21 -20v-177q0 -20 -21 -20h-176q-20 0 -20 20zM172 20v1393q0 20 21 21h827q20 0 20 -21v-123q0 -20 -20 -20h-676v-434h614q20 0 21 -21v-123q0 -20 -21 -20h-614v-508h707q20 0 20 -21v-123q0 -20 -20 -20h-858q-21 0 -21 20z" />
    <glyph glyph-name="edotaccent" unicode="&#x117;" horiz-adv-x="1214" 
d="M506 1237v176q0 20 20 21h176q20 0 21 -21v-176q0 -20 -21 -20h-176q-20 0 -20 20zM615 897q-124 0 -214.5 -73t-117.5 -208h661q-25 127 -115 204t-214 77zM102 512q0 229 145.5 383t368.5 154t361.5 -155t138.5 -376v-33q0 -20 -20 -20h-822q12 -152 103.5 -243
t240.5 -91q223 0 302 188q6 18 28 19h133q22 0 11 -35q-117 -324 -478 -323q-231 0 -371.5 151.5t-140.5 380.5z" />
    <glyph glyph-name="Eogonek" unicode="&#x118;" horiz-adv-x="1196" 
d="M172 20v1393q0 20 21 21h827q20 0 20 -21v-123q0 -20 -20 -20h-676v-434h614q20 0 21 -21v-123q0 -20 -21 -20h-614v-508h707q20 0 20 -21v-123q0 -18 -12 -20q-55 -14 -89 -52t-34 -86t37 -79t102 -31h25q20 0 20 -20v-70q0 -20 -20 -20h-72q-106 0 -176 47t-70 144
t101 167h-690q-21 0 -21 20z" />
    <glyph glyph-name="eogonek" unicode="&#x119;" horiz-adv-x="1214" 
d="M615 897q-124 0 -214.5 -73t-117.5 -208h661q-25 127 -115 204t-214 77zM102 518q0 223 145.5 377t368.5 154t361.5 -155t138.5 -376v-33q0 -20 -20 -20h-822q12 -152 103.5 -243t240.5 -91q223 0 302 188q6 18 28 19h133q22 0 11 -35q-84 -240 -314 -303
q-57 -16 -91 -53t-34 -85t37 -79t103 -31h24q20 0 21 -20v-70q0 -20 -21 -20h-72q-106 0 -175.5 47t-69.5 137t75 158q-215 14 -344 162.5t-129 371.5z" />
    <glyph glyph-name="Ecaron" unicode="&#x11a;" horiz-adv-x="1196" 
d="M332 1839h127q18 0 37 -18l129 -129l129 129q18 18 37 18h127q10 0 13 -6t-3 -14l-215 -263q-14 -16 -31 -16h-115q-16 0 -30 16l-215 263q-7 8 -3.5 14t13.5 6zM172 20v1393q0 20 21 21h827q20 0 20 -21v-123q0 -20 -20 -20h-676v-434h614q20 0 21 -21v-123
q0 -20 -21 -20h-614v-508h707q20 0 20 -21v-123q0 -20 -20 -20h-858q-21 0 -21 20z" />
    <glyph glyph-name="ecaron" unicode="&#x11b;" horiz-adv-x="1214" 
d="M322 1434h127q18 0 36 -19l129 -129l129 129q18 18 37 19h127q10 0 13.5 -6.5t-2.5 -14.5l-216 -262q-14 -16 -30 -16h-115q-16 0 -31 16l-215 262q-6 8 -3 14.5t14 6.5zM615 897q-124 0 -214.5 -73t-117.5 -208h661q-25 127 -115 204t-214 77zM102 512q0 229 145.5 383
t368.5 154t361.5 -155t138.5 -376v-33q0 -20 -20 -20h-822q12 -152 103.5 -243t240.5 -91q223 0 302 188q6 18 28 19h133q22 0 11 -35q-117 -324 -478 -323q-231 0 -371.5 151.5t-140.5 380.5z" />
    <glyph glyph-name="Gcircumflex" unicode="&#x11c;" horiz-adv-x="1460" 
d="M702 1839h115q16 0 31 -16l215 -262q6 -8 3 -14.5t-13 -6.5h-127q-18 0 -37 19l-129 129l-129 -129q-18 -18 -37 -19h-127q-10 0 -13 6t3 15l215 262q14 16 30 16zM106 717q0 178 56.5 322.5t201.5 279.5t382 135t398 -111.5t202 -318.5q0 -20 -23 -20h-131q-18 0 -25 20
q-37 135 -145.5 200.5t-261.5 65.5q-199 0 -336 -152.5t-137 -424.5t131 -421t362 -149q291 0 414 207v215h-408q-20 0 -20 21v123q0 20 20 20h560q20 0 20 -20v-357q0 -47 -20 -78q-190 -295 -558 -294q-289 0 -485.5 193.5t-196.5 543.5z" />
    <glyph glyph-name="gcircumflex" unicode="&#x11d;" horiz-adv-x="1191" 
d="M635 1434q16 0 31 -17l215 -262q6 -8 3 -14t-14 -6h-127q-18 0 -36 18l-129 129l-129 -129q-18 -18 -37 -18h-127q-11 0 -14 6t3 14l215 262q14 16 31 17h115zM270 526q0 -170 83 -270t231 -100t234.5 101t86.5 269t-86.5 269.5t-234.5 101.5t-231 -100.5t-83 -270.5z
M102 528q0 234 128 377.5t332 143.5t327 -134v93q0 20 20 20h119q20 0 21 -20v-947q0 -233 -113.5 -360t-313.5 -127t-325 89t-135 245q0 20 20 20h119q20 0 21 -20q25 -92 90 -137t201 -45t206 88t70 243v74q-143 -127 -335 -127t-322 145t-130 379z" />
    <glyph glyph-name="Gbreve" unicode="&#x11e;" horiz-adv-x="1460" 
d="M502 1794q0 20 20 21h99q20 0 20 -21q0 -49 32 -81t87 -32t87 32t32 81q0 20 20 21h98q20 0 21 -21q0 -111 -73 -179.5t-185.5 -68.5t-185 68.5t-72.5 179.5zM106 717q0 178 56.5 322.5t201.5 279.5t382 135t398 -111.5t202 -318.5q0 -20 -23 -20h-131q-18 0 -25 20
q-37 135 -145.5 200.5t-261.5 65.5q-199 0 -336 -152.5t-137 -424.5t131 -421t362 -149q291 0 414 207v215h-408q-20 0 -20 21v123q0 20 20 20h560q20 0 20 -20v-357q0 -47 -20 -78q-190 -295 -558 -294q-289 0 -485.5 193.5t-196.5 543.5z" />
    <glyph glyph-name="gbreve" unicode="&#x11f;" horiz-adv-x="1191" 
d="M324 1389q0 20 20 20h98q20 0 21 -20q0 -49 31.5 -81t87 -32t87 31.5t31.5 81.5q0 20 21 20h98q20 0 21 -20q0 -111 -73 -179.5t-185.5 -68.5t-185 68.5t-72.5 179.5zM270 526q0 -170 83 -270t231 -100t234.5 101t86.5 269t-86.5 269.5t-234.5 101.5t-231 -100.5
t-83 -270.5zM102 528q0 234 128 377.5t332 143.5t327 -134v93q0 20 20 20h119q20 0 21 -20v-947q0 -233 -113.5 -360t-313.5 -127t-325 89t-135 245q0 20 20 20h119q20 0 21 -20q25 -92 90 -137t201 -45t206 88t70 243v74q-143 -127 -335 -127t-322 145t-130 379z" />
    <glyph glyph-name="Gdotaccent" unicode="&#x120;" horiz-adv-x="1460" 
d="M651 1642v177q0 20 21 20h176q20 0 20 -20v-177q0 -20 -20 -20h-176q-21 0 -21 20zM106 717q0 178 56.5 322.5t201.5 279.5t382 135t398 -111.5t202 -318.5q0 -20 -23 -20h-131q-18 0 -25 20q-37 135 -145.5 200.5t-261.5 65.5q-199 0 -336 -152.5t-137 -424.5t131 -421
t362 -149q291 0 414 207v215h-408q-20 0 -20 21v123q0 20 20 20h560q20 0 20 -20v-357q0 -47 -20 -78q-190 -295 -558 -294q-289 0 -485.5 193.5t-196.5 543.5z" />
    <glyph glyph-name="gdotaccent" unicode="&#x121;" horiz-adv-x="1191" 
d="M471 1237v176q0 20 21 21h176q20 0 20 -21v-176q0 -20 -20 -20h-176q-21 0 -21 20zM270 526q0 -170 83 -270t231 -100t234.5 101t86.5 269t-86.5 269.5t-234.5 101.5t-231 -100.5t-83 -270.5zM102 528q0 234 128 377.5t332 143.5t327 -134v93q0 20 20 20h119q20 0 21 -20
v-947q0 -233 -113.5 -360t-313.5 -127t-325 89t-135 245q0 20 20 20h119q20 0 21 -20q25 -92 90 -137t201 -45t206 88t70 243v74q-143 -127 -335 -127t-322 145t-130 379z" />
    <glyph glyph-name="Gcommaaccent" unicode="&#x122;" horiz-adv-x="1460" 
d="M690 -106q0 20 21 20h155q20 0 21 -20v-216q0 -74 -31 -109.5t-102 -35.5h-43q-20 0 -21 21v32q0 20 21 21q59 0 76.5 15.5t17.5 70.5v24h-94q-20 0 -21 21v156zM106 717q0 178 56.5 322.5t201.5 279.5t382 135t398 -111.5t202 -318.5q0 -20 -23 -20h-131q-18 0 -25 20
q-37 135 -145.5 200.5t-261.5 65.5q-199 0 -336 -152.5t-137 -424.5t131 -421t362 -149q291 0 414 207v215h-408q-20 0 -20 21v123q0 20 20 20h560q20 0 20 -20v-357q0 -47 -20 -78q-190 -295 -558 -294q-289 0 -485.5 193.5t-196.5 543.5z" />
    <glyph glyph-name="gcommaaccent" unicode="&#x123;" horiz-adv-x="1191" 
d="M469 1176v231q0 84 47 128t125 44h31q20 0 20 -20v-33q0 -20 -20 -21q-61 0 -83 -21.5t-22 -88.5v-43h90q20 0 21 -21v-155q0 -20 -21 -21h-168q-20 1 -20 21zM270 526q0 -170 83 -270t231 -100t234.5 101t86.5 269t-86.5 269.5t-234.5 101.5t-231 -100.5t-83 -270.5z
M102 528q0 234 128 377.5t332 143.5t327 -134v93q0 20 20 20h119q20 0 21 -20v-947q0 -233 -113.5 -360t-313.5 -127t-325 89t-135 245q0 20 20 20h119q20 0 21 -20q25 -92 90 -137t201 -45t206 88t70 243v74q-143 -127 -335 -127t-322 145t-130 379z" />
    <glyph glyph-name="Hcircumflex" unicode="&#x124;" horiz-adv-x="1388" 
d="M635 1839h115q16 0 30 -16l215 -262q6 -8 3 -14.5t-13 -6.5h-127q-18 0 -37 19l-129 129l-129 -129q-18 -18 -37 -19h-127q-10 0 -13 6t3 15l215 262q14 16 31 16zM172 20v1393q0 20 21 21h131q20 0 20 -21v-584h700v584q0 20 21 21h131q20 0 21 -21v-1393q0 -20 -21 -20
h-131q-20 0 -21 20v646h-700v-646q0 -20 -20 -20h-131q-21 0 -21 20z" />
    <glyph glyph-name="hcircumflex" unicode="&#x125;" horiz-adv-x="1183" 
d="M416 1839h114q16 0 31 -16l215 -262q6 -8 3 -14.5t-13 -6.5h-127q-18 0 -37 19l-129 129l-129 -129q-18 -18 -37 -19h-127q-10 0 -13 6t3 15l215 262q14 16 31 16zM164 20v1393q0 20 20 21h119q20 0 21 -21v-536q63 78 162.5 125t197.5 47q166 0 261 -92.5t95 -262.5
v-674q0 -20 -20 -20h-119q-20 0 -20 20v633q0 244 -240 244q-129 0 -223 -100.5t-94 -268.5v-508q0 -20 -21 -20h-119q-20 0 -20 20z" />
    <glyph glyph-name="Hbar" unicode="&#x126;" horiz-adv-x="1388" 
d="M344 829h700v215h-700v-215zM8 1065v111q0 20 21 20h143v217q0 20 21 21h131q20 0 20 -21v-217h700v217q0 20 21 21h131q20 0 21 -21v-217h143q20 0 20 -20v-111q0 -20 -20 -21h-143v-1024q0 -20 -21 -20h-131q-20 0 -21 20v646h-700v-646q0 -20 -20 -20h-131
q-20 0 -21 20v1024h-143q-21 1 -21 21z" />
    <glyph glyph-name="hbar" unicode="&#x127;" horiz-adv-x="1183" 
d="M4 1147v106q0 20 21 21h139v139q0 20 20 21h119q20 0 21 -21v-139h251q20 0 21 -21v-106q0 -20 -21 -21h-251v-249q63 78 162.5 125t197.5 47q166 0 261 -92.5t95 -262.5v-674q0 -20 -20 -20h-119q-20 0 -20 20v633q0 244 -240 244q-129 0 -223 -100.5t-94 -268.5v-508
q0 -20 -21 -20h-119q-20 0 -20 20v1106h-139q-21 1 -21 21z" />
    <glyph glyph-name="Itilde" unicode="&#x128;" horiz-adv-x="516" 
d="M172 20v1393q0 20 21 21h131q20 0 20 -21v-1393q0 -20 -20 -20h-131q-21 0 -21 20zM114 1839q90 0 161 -42t120 -42t127 51q8 4 18 4t17 -16l57 -86q10 -16 -16 -35q-100 -74 -192 -74t-161 42t-118 42t-127 -51q-8 -4 -16 -4t-19 17l-57 86q-10 16 16 34q100 74 190 74z
" />
    <glyph glyph-name="itilde" unicode="&#x129;" horiz-adv-x="438" 
d="M139 20v988q0 20 21 20h119q20 0 20 -20v-988q0 -20 -20 -20h-119q-21 0 -21 20zM74 1434q90 0 160.5 -42t119.5 -42t127 51q7 4 17 4t18 -16l57 -86q10 -16 -16 -35q-99 -74 -191 -74t-161.5 42t-118.5 42t-127 -51q-8 -4 -16 -4t-19 16l-57 86q-10 16 16 35
q101 74 191 74z" />
    <glyph glyph-name="Imacron" unicode="&#x12a;" horiz-adv-x="516" 
d="M172 20v1393q0 20 21 21h131q20 0 20 -21v-1393q0 -20 -20 -20h-131q-21 0 -21 20zM45 1647v102q0 20 21 20h385q20 0 20 -20v-102q0 -20 -20 -21h-385q-21 1 -21 21z" />
    <glyph glyph-name="imacron" unicode="&#x12b;" horiz-adv-x="438" 
d="M139 20v988q0 20 21 20h119q20 0 20 -20v-988q0 -20 -20 -20h-119q-21 0 -21 20zM6 1241v102q0 20 21 21h385q20 0 20 -21v-102q0 -20 -20 -20h-385q-21 0 -21 20z" />
    <glyph glyph-name="Ibreve" unicode="&#x12c;" horiz-adv-x="516" 
d="M172 20v1393q0 20 21 21h131q20 0 20 -21v-1393q0 -20 -20 -20h-131q-21 0 -21 20zM0 1794q0 20 20 21h99q20 0 20 -21q0 -49 32 -81t87 -32t87 32t32 81q0 20 20 21h99q20 0 20 -21q0 -111 -72.5 -179.5t-185.5 -68.5t-185.5 68.5t-72.5 179.5z" />
    <glyph glyph-name="ibreve" unicode="&#x12d;" horiz-adv-x="438" 
d="M139 20v988q0 20 21 20h119q20 0 20 -20v-988q0 -20 -20 -20h-119q-21 0 -21 20zM-39 1389q0 20 21 20h98q20 0 20 -20q0 -49 32 -81t87 -32t87 31.5t32 81.5q0 20 20 20h99q20 0 20 -20q0 -111 -72.5 -179.5t-185.5 -68.5t-185.5 68.5t-72.5 179.5z" />
    <glyph glyph-name="Iogonek" unicode="&#x12e;" horiz-adv-x="516" 
d="M53 -172q0 57 35 106.5t84 77.5v1401q0 20 21 21h131q20 0 20 -21v-1393q0 -18 -14 -20q-55 -14 -89 -52t-34 -86t37 -79t102 -31h25q20 0 20 -20v-70q0 -20 -20 -20h-72q-106 0 -176 47t-70 139z" />
    <glyph glyph-name="iogonek" unicode="&#x12f;" horiz-adv-x="438" 
d="M111 1237v176q0 20 20 21h176q20 0 21 -21v-176q0 -20 -21 -20h-176q-20 0 -20 20zM8 -172q0 61 39 112.5t92 77.5v990q0 20 21 20h119q20 0 20 -20v-988q0 -18 -14 -20q-55 -14 -89 -52t-34 -86t37 -79t102 -31h25q20 0 20 -20v-70q0 -20 -20 -20h-72q-106 0 -176 47
t-70 139z" />
    <glyph glyph-name="Idotaccent" unicode="&#x130;" horiz-adv-x="516" 
d="M172 20v1393q0 20 21 21h131q20 0 20 -21v-1393q0 -20 -20 -20h-131q-21 0 -21 20zM150 1642v177q0 20 20 20h176q20 0 21 -20v-177q0 -20 -21 -20h-176q-20 0 -20 20z" />
    <glyph glyph-name="dotlessi" unicode="&#x131;" horiz-adv-x="438" 
d="M139 20v988q0 20 21 20h119q20 0 20 -20v-988q0 -20 -20 -20h-119q-21 0 -21 20z" />
    <glyph glyph-name="IJ" unicode="&#x132;" horiz-adv-x="1624" 
d="M584 436q0 20 20 21h131q20 0 21 -21q0 -129 76 -211t216 -82q280 0 281 361v909q0 20 21 21h131q20 0 20 -21v-907q0 -266 -127 -396t-336 -130t-331.5 128.5t-122.5 327.5zM172 20v1393q0 20 21 21h131q20 0 20 -21v-1393q0 -20 -20 -20h-131q-21 0 -21 20z" />
    <glyph glyph-name="ij" unicode="&#x133;" horiz-adv-x="876" 
d="M549 1237v176q0 20 20 21h176q20 0 21 -21v-176q0 -20 -21 -20h-176q-20 0 -20 20zM578 1008q0 20 20 20h119q20 0 20 -20v-1063q0 -199 -65 -355q-6 -16 -17 -16q-4 0 -14 4l-109 39q-20 7 -14 25q59 156 60 278v1088zM139 20v988q0 20 21 20h119q20 0 20 -20v-988
q0 -20 -20 -20h-119q-21 0 -21 20zM111 1237v176q0 20 20 21h176q20 0 21 -21v-176q0 -20 -21 -20h-176q-20 0 -20 20z" />
    <glyph glyph-name="Jcircumflex" unicode="&#x134;" horiz-adv-x="1107" 
d="M848 1839h115q16 0 30 -16l215 -262q6 -8 3 -14.5t-13 -6.5h-127q-18 0 -37 19l-129 129l-129 -129q-18 -18 -37 -19h-127q-10 0 -13 6t3 15l215 262q14 16 31 16zM68 436q0 20 20 21h131q20 0 21 -21q0 -129 76 -211t216 -82q280 0 281 361v909q0 20 21 21h131
q20 0 20 -21v-907q0 -266 -127 -396t-336 -130t-331.5 128.5t-122.5 327.5z" />
    <glyph glyph-name="jcircumflex" unicode="&#x135;" horiz-adv-x="438" 
d="M139 -80v1088q0 20 21 20h119q20 0 20 -20v-1063q0 -199 -66 -355q-6 -16 -13 -16t-17 4l-109 39q-20 7 -14 25q59 156 59 278zM276 1434q16 0 31 -17l215 -262q6 -8 3 -14t-13 -6h-127q-18 0 -37 18l-129 129l-129 -129q-18 -18 -37 -18h-127q-10 0 -13 6t3 14l215 262
q14 16 31 17h114z" />
    <glyph glyph-name="Kcommaaccent" unicode="&#x136;" horiz-adv-x="1257" 
d="M567 -106q0 20 21 20h155q20 0 21 -20v-216q0 -74 -31 -109.5t-102 -35.5h-43q-20 0 -21 21v32q0 20 21 21q59 0 76.5 15.5t17.5 70.5v24h-94q-20 0 -21 21v156zM172 20v1393q0 20 21 21h131q20 0 20 -21v-616l580 616q18 20 32 21h172q14 0 18.5 -10.5t-5.5 -18.5
l-465 -500l557 -876q6 -12 2 -20.5t-16 -8.5h-166q-18 0 -37 31l-473 733l-199 -215v-529q0 -20 -20 -20h-131q-21 0 -21 20z" />
    <glyph glyph-name="kcommaaccent" unicode="&#x137;" horiz-adv-x="1081" 
d="M485 -106q0 20 21 20h156q20 0 20 -20v-216q0 -74 -30.5 -109.5t-102.5 -35.5h-43q-20 0 -21 21v32q0 20 21 21q59 0 76.5 15.5t17.5 70.5v24h-94q-20 0 -21 21v156zM164 20v1393q0 20 20 21h119q20 0 21 -21v-823l448 420q18 18 33 18h170q16 0 16 -11t-8 -20l-365 -340
l414 -626q4 -6 4 -15q0 -16 -18 -16h-144q-23 0 -32 18l-348 523l-170 -162v-359q0 -20 -21 -20h-119q-20 0 -20 20z" />
    <glyph glyph-name="kgreenlandic" unicode="&#x138;" horiz-adv-x="1089" 
d="M164 20v988q0 20 20 20h119q20 0 21 -20v-428l454 430q18 18 33 18h170q16 0 16 -11t-8 -20l-366 -346l417 -620q4 -6 4 -15q0 -16 -18 -16h-145q-23 0 -33 18l-350 514l-174 -163v-349q0 -20 -21 -20h-119q-20 0 -20 20z" />
    <glyph glyph-name="Lacute" unicode="&#x139;" horiz-adv-x="1183" 
d="M188 1552q0 4 2 9l142 258q12 20 30 20h195q14 0 14 -7t-4 -13l-211 -260q-16 -18 -37 -19h-118q-13 0 -13 12zM172 20v1393q0 20 21 21h131q20 0 20 -21v-1249h735q20 0 21 -21v-123q0 -20 -21 -20h-886q-21 0 -21 20z" />
    <glyph glyph-name="lacute" unicode="&#x13a;" horiz-adv-x="487" 
d="M182 1552q0 4 2 9l142 258q12 20 30 20h195q14 0 14 -7t-4 -13l-211 -260q-14 -18 -37 -19h-118q-13 0 -13 12zM164 20v1393q0 20 20 21h119q20 0 21 -21v-1393q0 -20 -21 -20h-119q-20 0 -20 20z" />
    <glyph glyph-name="Lcommaaccent" unicode="&#x13b;" horiz-adv-x="1183" 
d="M561 -106q0 20 21 20h155q20 0 21 -20v-216q0 -74 -31 -109.5t-102 -35.5h-43q-20 0 -21 21v32q0 20 21 21q59 0 76.5 15.5t17.5 70.5v24h-94q-20 0 -21 21v156zM172 20v1393q0 20 21 21h131q20 0 20 -21v-1249h735q20 0 21 -21v-123q0 -20 -21 -20h-886q-21 0 -21 20z
" />
    <glyph glyph-name="lcommaaccent" unicode="&#x13c;" horiz-adv-x="487" 
d="M166 20v1393q0 20 20 21h119q20 0 21 -21v-1393q0 -20 -21 -20h-119q-20 0 -20 20zM145 -106q0 20 21 20h156q20 0 20 -20v-216q0 -74 -30.5 -109.5t-102.5 -35.5h-43q-20 0 -21 21v32q0 20 21 21q59 0 76.5 15.5t17.5 70.5v24h-94q-20 0 -21 21v156z" />
    <glyph glyph-name="Lcaron" unicode="&#x13d;" horiz-adv-x="1183" 
d="M629 1030v33q0 20 20 20q61 0 83 21.5t22 89.5v43h-90q-20 0 -21 20v156q0 20 21 21h167q20 0 21 -21v-231q0 -84 -47 -128t-125 -44h-31q-20 0 -20 20zM172 20v1393q0 20 21 21h131q20 0 20 -21v-1249h735q20 0 21 -21v-123q0 -20 -21 -20h-886q-21 0 -21 20z" />
    <glyph glyph-name="lcaron" unicode="&#x13e;" horiz-adv-x="765" 
d="M489 1030v33q0 20 21 20q61 0 82.5 21.5t21.5 89.5v43h-90q-20 0 -20 20v156q0 20 20 21h168q20 0 21 -21v-231q0 -84 -47.5 -128t-124.5 -44h-31q-21 0 -21 20zM164 20v1393q0 20 20 21h119q20 0 21 -21v-1393q0 -20 -21 -20h-119q-20 0 -20 20z" />
    <glyph glyph-name="Ldot" unicode="&#x13f;" horiz-adv-x="1183" 
d="M586 635v156q0 20 20 20h156q20 0 20 -20v-156q0 -20 -20 -21h-156q-20 1 -20 21zM172 20v1393q0 20 21 21h131q20 0 20 -21v-1249h735q20 0 21 -21v-123q0 -20 -21 -20h-886q-21 0 -21 20z" />
    <glyph glyph-name="ldot" unicode="&#x140;" horiz-adv-x="778" 
d="M504 635v156q0 20 20 20h156q20 0 20 -20v-156q0 -20 -20 -21h-156q-20 1 -20 21zM164 20v1393q0 20 20 21h119q20 0 21 -21v-1393q0 -20 -21 -20h-119q-20 0 -20 20z" />
    <glyph glyph-name="Lslash" unicode="&#x141;" horiz-adv-x="1183" 
d="M193 1413q0 20 20 21h131q20 0 21 -21v-645l288 154q18 8 29 -11l51 -96q10 -20 -8 -29l-360 -190v-432h714q20 0 21 -21v-123q0 -20 -21 -20h-866q-20 0 -20 20v484l-119 -62q-18 -8 -29 11l-51 96q-10 20 8 29l191 100v735z" />
    <glyph glyph-name="lslash" unicode="&#x142;" horiz-adv-x="595" 
d="M221 1413q0 20 21 21h118q20 0 21 -21v-588l156 82q18 8 28 -10l51 -96q10 -20 -8 -29l-227 -121v-631q0 -20 -21 -20h-118q-20 0 -21 20v547l-162 -84q-18 -8 -28 11l-51 96q-10 20 8 28l233 123v672z" />
    <glyph glyph-name="Nacute" unicode="&#x143;" horiz-adv-x="1425" 
d="M594 1552q0 4 2 9l141 258q12 20 31 20h195q14 0 14 -7t-4 -13l-211 -260q-16 -18 -37 -19h-119q-12 0 -12 12zM172 20v1393q0 20 21 21h157q27 0 33 -17l698 -1147v1143q0 20 21 21h131q20 0 20 -21v-1393q0 -20 -20 -20h-158q-27 0 -33 16l-698 1147v-1143
q0 -20 -20 -20h-131q-21 0 -21 20z" />
    <glyph glyph-name="nacute" unicode="&#x144;" 
d="M479 1147q0 4 2 8l142 258q12 20 30 21h195q14 0 14 -11q0 -4 -4 -10l-211 -260q-16 -18 -37 -18h-118q-13 0 -13 12zM164 20v988q0 20 20 20h119q20 0 21 -20v-117q131 158 340 158q164 0 260 -98.5t96 -274.5v-656q0 -20 -21 -20h-118q-20 0 -21 20v631q0 246 -233 246
q-135 0 -219 -96t-84 -277v-504q0 -20 -21 -20h-119q-20 0 -20 20z" />
    <glyph glyph-name="Ncommaaccent" unicode="&#x145;" horiz-adv-x="1425" 
d="M623 -106q0 20 20 20h156q20 0 20 -20v-216q0 -74 -30.5 -109.5t-102.5 -35.5h-43q-20 0 -20 21v32q0 20 20 21q59 0 76.5 15.5t17.5 70.5v24h-94q-20 0 -20 21v156zM172 20v1393q0 20 21 21h157q27 0 33 -17l698 -1147v1143q0 20 21 21h131q20 0 20 -21v-1393
q0 -20 -20 -20h-158q-27 0 -33 16l-698 1147v-1143q0 -20 -20 -20h-131q-21 0 -21 20z" />
    <glyph glyph-name="ncommaaccent" unicode="&#x146;" 
d="M506 -106q0 20 20 20h156q20 0 20 -20v-216q0 -74 -30.5 -109.5t-102.5 -35.5h-43q-20 0 -20 21v32q0 20 20 21q59 0 77 15.5t18 70.5v24h-95q-20 0 -20 21v156zM164 20v988q0 20 20 20h119q20 0 21 -20v-117q131 158 340 158q164 0 260 -98.5t96 -274.5v-656
q0 -20 -21 -20h-118q-20 0 -21 20v631q0 246 -233 246q-135 0 -219 -96t-84 -277v-504q0 -20 -21 -20h-119q-20 0 -20 20z" />
    <glyph glyph-name="Ncaron" unicode="&#x147;" horiz-adv-x="1425" 
d="M442 1839h127q18 0 37 -18l129 -129l129 129q18 18 37 18h127q10 0 13 -6t-3 -14l-215 -263q-14 -16 -30 -16h-115q-16 0 -31 16l-215 263q-6 8 -3 14t13 6zM172 20v1393q0 20 21 21h157q27 0 33 -17l698 -1147v1143q0 20 21 21h131q20 0 20 -21v-1393q0 -20 -20 -20
h-158q-27 0 -33 16l-698 1147v-1143q0 -20 -20 -20h-131q-21 0 -21 20z" />
    <glyph glyph-name="ncaron" unicode="&#x148;" 
d="M346 1434h127q18 0 37 -19l129 -129l129 129q18 18 37 19h127q10 0 13 -6.5t-3 -14.5l-215 -262q-14 -16 -31 -16h-114q-16 0 -31 16l-215 262q-6 8 -3 14.5t13 6.5zM164 20v988q0 20 20 20h119q20 0 21 -20v-117q131 158 340 158q164 0 260 -98.5t96 -274.5v-656
q0 -20 -21 -20h-118q-20 0 -21 20v631q0 246 -233 246q-135 0 -219 -96t-84 -277v-504q0 -20 -21 -20h-119q-20 0 -20 20z" />
    <glyph glyph-name="napostrophe" unicode="&#x149;" horiz-adv-x="1335" 
d="M332 20v988q0 20 20 20h119q20 0 21 -20v-117q131 158 339 158q164 0 260.5 -98.5t96.5 -274.5v-656q0 -20 -21 -20h-118q-20 0 -21 20v631q0 246 -233 246q-135 0 -219 -96t-84 -277v-504q0 -20 -21 -20h-119q-20 0 -20 20zM53 1092v32q0 20 21 21q61 0 82.5 21.5
t21.5 88.5v43h-90q-20 0 -20 21v156q0 20 20 20h168q20 0 20 -20v-232q0 -84 -47 -128t-125 -44h-30q-21 1 -21 21z" />
    <glyph glyph-name="Eng" unicode="&#x14a;" horiz-adv-x="1425" 
d="M172 20v1393q0 20 21 21h157q23 0 33 -17l698 -1089v1085q0 20 21 21h131q20 0 20 -21v-1427q0 -236 -99 -324t-363 -88q-20 0 -21 20v123q0 20 21 21q131 0 183 15.5t79.5 61.5t27.5 185v10l-737 1153v-1143q0 -20 -20 -20h-131q-21 0 -21 20z" />
    <glyph glyph-name="eng" unicode="&#x14b;" horiz-adv-x="1159" 
d="M164 20v988q0 20 20 20h119q20 0 21 -20v-117q131 158 340 158q164 0 260 -98.5t96 -274.5v-731q0 -199 -66 -355q-6 -16 -13 -16t-17 4l-109 39q-20 6 -14 25q59 156 59 278v731q0 246 -233 246q-135 0 -219 -96t-84 -277v-504q0 -20 -21 -20h-119q-20 0 -20 20z" />
    <glyph glyph-name="Omacron" unicode="&#x14c;" horiz-adv-x="1572" 
d="M573 1647v102q0 20 21 20h385q20 0 20 -20v-102q0 -20 -20 -21h-385q-21 1 -21 21zM287 716.5q0 -278.5 143 -426t356 -147.5t356.5 147.5t143.5 426t-143.5 426t-356.5 147.5t-356 -147.5t-143 -426zM106 717q0 178 58.5 321.5t156 232.5t217 136t248.5 47t249 -47
t217.5 -136t155.5 -232.5t58 -321.5t-58 -321.5t-155.5 -232.5t-217.5 -136t-249 -47t-248.5 47t-217 136t-156 232.5t-58.5 321.5z" />
    <glyph glyph-name="omacron" unicode="&#x14d;" horiz-adv-x="1249" 
d="M412 1241v102q0 20 20 21h385q20 0 21 -21v-102q0 -20 -21 -20h-385q-20 0 -20 20zM270 514q0 -172 98.5 -277.5t256 -105.5t256 105.5t98.5 277.5t-98.5 277.5t-256 105.5t-256 -105.5t-98.5 -277.5zM102 514q0 240 148.5 387.5t374 147.5t374 -147.5t148.5 -387.5
t-148.5 -387t-374 -147t-374 147t-148.5 387z" />
    <glyph glyph-name="Obreve" unicode="&#x14e;" horiz-adv-x="1572" 
d="M528 1794q0 20 21 21h98q20 0 21 -21q0 -49 31.5 -81t87 -32t87 32t31.5 81q0 20 21 21h98q20 0 20 -21q0 -111 -72.5 -179.5t-185 -68.5t-185.5 68.5t-73 179.5zM287 716.5q0 -278.5 143 -426t356 -147.5t356.5 147.5t143.5 426t-143.5 426t-356.5 147.5t-356 -147.5
t-143 -426zM106 717q0 178 58.5 321.5t156 232.5t217 136t248.5 47t249 -47t217.5 -136t155.5 -232.5t58 -321.5t-58 -321.5t-155.5 -232.5t-217.5 -136t-249 -47t-248.5 47t-217 136t-156 232.5t-58.5 321.5z" />
    <glyph glyph-name="obreve" unicode="&#x14f;" horiz-adv-x="1249" 
d="M367 1389q0 20 20 20h98q20 0 21 -20q0 -49 31.5 -81t87 -32t87 31.5t31.5 81.5q0 20 21 20h98q20 0 21 -20q0 -111 -73 -179.5t-185.5 -68.5t-185 68.5t-72.5 179.5zM270 514q0 -172 98.5 -277.5t256 -105.5t256 105.5t98.5 277.5t-98.5 277.5t-256 105.5t-256 -105.5
t-98.5 -277.5zM102 514q0 240 148.5 387.5t374 147.5t374 -147.5t148.5 -387.5t-148.5 -387t-374 -147t-374 147t-148.5 387z" />
    <glyph glyph-name="Ohungarumlaut" unicode="&#x150;" horiz-adv-x="1572" 
d="M1047 1839h194q10 0 13 -6t-3 -14l-211 -260q-16 -18 -36 -19h-119q-23 1 -11 21l142 258q12 20 31 20zM668 1839h194q10 0 13.5 -6t-3.5 -14l-210 -260q-14 -18 -37 -19h-119q-22 1 -10 21l141 258q12 20 31 20zM287 716.5q0 -278.5 143 -426t356 -147.5t356.5 147.5
t143.5 426t-143.5 426t-356.5 147.5t-356 -147.5t-143 -426zM106 717q0 178 58.5 321.5t156 232.5t217 136t248.5 47t249 -47t217.5 -136t155.5 -232.5t58 -321.5t-58 -321.5t-155.5 -232.5t-217.5 -136t-249 -47t-248.5 47t-217 136t-156 232.5t-58.5 321.5z" />
    <glyph glyph-name="ohungarumlaut" unicode="&#x151;" horiz-adv-x="1249" 
d="M1055 1434q10 0 13 -6.5t-3 -14.5l-211 -260q-14 -18 -37 -18h-119q-22 0 -10 20l141 258q12 20 31 21h195zM676 1434q10 0 13 -6.5t-3 -14.5l-211 -260q-16 -18 -37 -18h-119q-22 0 -10 20l142 258q12 20 30 21h195zM270 514q0 -172 98.5 -277.5t256 -105.5t256 105.5
t98.5 277.5t-98.5 277.5t-256 105.5t-256 -105.5t-98.5 -277.5zM102 514q0 240 148.5 387.5t374 147.5t374 -147.5t148.5 -387.5t-148.5 -387t-374 -147t-374 147t-148.5 387z" />
    <glyph glyph-name="OE" unicode="&#x152;" horiz-adv-x="2318" 
d="M287 716.5q0 -278.5 143 -426t356 -147.5t356.5 147.5t143.5 426t-143.5 426t-356.5 147.5t-356 -147.5t-143 -426zM106 717q0 178 58.5 321.5t207.5 279.5t414 136q143 0 277.5 -59.5t230.5 -169.5v188q0 20 21 21h827q20 0 21 -21v-123q0 -20 -21 -20h-676v-434h615
q20 0 20 -21v-123q0 -20 -20 -20h-615v-508h707q20 0 20 -21v-123q0 -20 -20 -20h-858q-20 0 -21 20v187q-96 -111 -229 -169t-271 -58t-257 47t-216.5 136t-156 232.5t-58.5 321.5z" />
    <glyph glyph-name="oe" unicode="&#x153;" horiz-adv-x="2091" 
d="M1492 897q-124 0 -215 -73t-118 -208h662q-25 127 -115 204t-214 77zM270 514q0 -172 98.5 -277.5t255.5 -105.5t256 106.5t99 276.5t-99.5 276.5t-255.5 106.5t-255 -105.5t-99 -277.5zM102 514q0 240 148.5 387.5t374.5 147.5q139 0 254.5 -61.5t185.5 -170.5
q68 109 179.5 170.5t246.5 61.5q225 0 363.5 -155t138.5 -376v-33q0 -20 -21 -20h-821q12 -152 103.5 -243t240.5 -91q223 0 301 188q6 18 29 19h133q14 0 14 -11t-4 -24q-117 -324 -477 -323q-287 0 -428 227q-70 -109 -184.5 -168t-253.5 -59q-225 0 -374 147t-149 387z
" />
    <glyph glyph-name="Racute" unicode="&#x154;" horiz-adv-x="1259" 
d="M455 1552q0 4 2 9l141 258q12 20 31 20h194q24 0 11 -20l-211 -260q-16 -18 -37 -19h-119q-12 0 -12 12zM344 840h367q250 0 250 215t-250 215h-367v-430zM172 20v1393q0 20 21 21h505q207 0 321 -97.5t114 -281.5q0 -141 -74 -231.5t-195 -129.5l314 -674q8 -20 -17 -20
h-143q-16 0 -29 20l-311 656h-334v-656q0 -20 -20 -20h-131q-21 0 -21 20z" />
    <glyph glyph-name="racute" unicode="&#x155;" horiz-adv-x="884" 
d="M350 1147q0 4 2 8l142 258q12 20 30 21h195q14 0 14 -11q0 -4 -4 -10l-211 -260q-14 -18 -37 -18h-119q-12 0 -12 12zM164 20v988q0 20 20 20h119q20 0 21 -20v-113q113 154 299 154q72 0 170 -33q23 -8 24 -37v-123q0 -23 -22 -22q-125 63 -228 63t-173 -91t-70 -228
v-558q0 -20 -21 -20h-119q-20 0 -20 20z" />
    <glyph glyph-name="Rcommaaccent" unicode="&#x156;" horiz-adv-x="1259" 
d="M535 -106q0 20 20 20h156q20 0 20 -20v-216q0 -74 -30.5 -109.5t-102.5 -35.5h-43q-20 0 -20 21v32q0 20 20 21q59 0 76.5 15.5t17.5 70.5v24h-94q-20 0 -20 21v156zM344 840h367q250 0 250 215t-250 215h-367v-430zM172 20v1393q0 20 21 21h505q207 0 321 -97.5
t114 -281.5q0 -141 -74 -231.5t-195 -129.5l314 -674q8 -20 -17 -20h-143q-16 0 -29 20l-311 656h-334v-656q0 -20 -20 -20h-131q-21 0 -21 20z" />
    <glyph glyph-name="rcommaaccent" unicode="&#x157;" horiz-adv-x="884" 
d="M276 -106q0 20 21 20h156q20 0 20 -20v-216q0 -74 -30.5 -109.5t-102.5 -35.5h-43q-20 0 -21 21v32q0 20 21 21q59 0 76.5 15.5t17.5 70.5v24h-94q-20 0 -21 21v156zM164 20v988q0 20 20 20h119q20 0 21 -20v-113q113 154 299 154q72 0 170 -33q23 -8 24 -37v-123
q0 -23 -22 -22q-125 63 -228 63t-173 -91t-70 -228v-558q0 -20 -21 -20h-119q-20 0 -20 20z" />
    <glyph glyph-name="Rcaron" unicode="&#x158;" horiz-adv-x="1259" 
d="M344 840h367q250 0 250 215t-250 215h-367v-430zM309 1839h127q18 0 37 -18l129 -129l129 129q18 18 37 18h127q10 0 13 -6t-3 -14l-215 -263q-14 -16 -31 -16h-114q-16 0 -31 16l-215 263q-6 8 -3 14t13 6zM172 20v1393q0 20 21 21h505q207 0 321 -97.5t114 -281.5
q0 -141 -74 -231.5t-195 -129.5l314 -674q8 -20 -17 -20h-143q-16 0 -29 20l-311 656h-334v-656q0 -20 -20 -20h-131q-21 0 -21 20z" />
    <glyph glyph-name="rcaron" unicode="&#x159;" horiz-adv-x="884" 
d="M186 1434h127q18 0 37 -19l129 -129l129 129q18 18 37 19h127q10 0 13 -6.5t-3 -14.5l-215 -262q-14 -16 -30 -16h-115q-16 0 -31 16l-215 262q-6 8 -3 14.5t13 6.5zM164 20v988q0 20 20 20h119q20 0 21 -20v-113q113 154 299 154q72 0 170 -33q23 -8 24 -37v-123
q0 -23 -22 -22q-125 63 -228 63t-173 -91t-70 -228v-558q0 -20 -21 -20h-119q-20 0 -20 20z" />
    <glyph glyph-name="Sacute" unicode="&#x15a;" horiz-adv-x="1208" 
d="M473 1552q0 4 2 9l141 258q12 20 31 20h195q14 0 14 -7t-4 -13l-211 -260q-14 -18 -37 -19h-119q-12 0 -12 12zM74 434q0 20 20 21h131q20 0 21 -21q4 -127 101 -209t255 -82q356 0 356 265q0 96 -95 149t-303 106t-328.5 145.5t-120.5 267.5t139 276.5t351 101.5
t345 -116.5t137 -282.5q0 -20 -20 -21h-131q-20 0 -21 21q-6 104 -97 169.5t-224 65.5t-220 -56t-87 -158t93 -158t302 -111t330.5 -143.5t121.5 -245.5q0 -215 -143 -326.5t-377 -111.5t-385 126.5t-151 327.5z" />
    <glyph glyph-name="sacute" unicode="&#x15b;" horiz-adv-x="1024" 
d="M399 1147q0 4 2 8l142 258q12 20 30 21h195q14 0 14 -11q0 -4 -4 -10l-211 -260q-14 -18 -37 -18h-118q-13 0 -13 12zM84 313q0 20 20 21h132q18 0 20 -21q12 -88 81 -135t185 -47q238 0 238 150q0 76 -67.5 112.5t-242.5 64.5t-257 96.5t-82 203.5t110.5 213t279.5 78
t272.5 -80t121.5 -215q0 -20 -21 -21h-114q-14 0 -21 21q-23 72 -90 107.5t-162 35.5t-156 -34.5t-61 -104.5t63.5 -106t186.5 -57t181.5 -39.5t142.5 -67.5t84 -194t-114 -229.5t-297 -84.5t-308 95t-125 238z" />
    <glyph glyph-name="Scircumflex" unicode="&#x15c;" horiz-adv-x="1208" 
d="M535 1839h114q16 0 31 -16l215 -262q6 -8 3 -14.5t-13 -6.5h-127q-18 0 -37 19l-129 129l-129 -129q-18 -18 -37 -19h-127q-10 0 -13 6t3 15l215 262q14 16 31 16zM74 434q0 20 20 21h131q20 0 21 -21q4 -127 101 -209t255 -82q356 0 356 265q0 96 -95 149t-303 106
t-328.5 145.5t-120.5 267.5t139 276.5t351 101.5t345 -116.5t137 -282.5q0 -20 -20 -21h-131q-20 0 -21 21q-6 104 -97 169.5t-224 65.5t-220 -56t-87 -158t93 -158t302 -111t330.5 -143.5t121.5 -245.5q0 -215 -143 -326.5t-377 -111.5t-385 126.5t-151 327.5z" />
    <glyph glyph-name="scircumflex" unicode="&#x15d;" horiz-adv-x="1024" 
d="M551 1434q16 0 31 -17l215 -262q6 -8 3 -14t-14 -6h-127q-18 0 -36 18l-129 129l-129 -129q-18 -18 -37 -18h-127q-11 0 -14 6t3 14l216 262q14 16 30 17h115zM84 313q0 20 20 21h132q18 0 20 -21q12 -88 81 -135t185 -47q238 0 238 150q0 76 -67.5 112.5t-242.5 64.5
t-257 96.5t-82 203.5t110.5 213t279.5 78t272.5 -80t121.5 -215q0 -20 -21 -21h-114q-14 0 -21 21q-23 72 -90 107.5t-162 35.5t-156 -34.5t-61 -104.5t63.5 -106t186.5 -57t181.5 -39.5t142.5 -67.5t84 -194t-114 -229.5t-297 -84.5t-308 95t-125 238z" />
    <glyph glyph-name="Scedilla" unicode="&#x15e;" horiz-adv-x="1208" 
d="M74 434q0 20 20 21h131q20 0 21 -21q4 -127 101 -209t255 -82q356 0 356 265q0 96 -95 149t-303 106t-328.5 145.5t-120.5 267.5t139 276.5t351 101.5t345 -116.5t137 -282.5q0 -20 -20 -21h-131q-20 0 -21 21q-6 104 -97 169.5t-224 65.5t-220 -56t-87 -158t93 -158
t302 -111t330.5 -143.5t121.5 -245.5q0 -213 -140 -323.5t-378 -114.5l-45 -105q51 14 122 14t118 -39.5t47 -105.5q0 -170 -229 -170q-106 0 -193 20q-20 6 -20 21v59q0 20 20 21q6 0 55.5 -11.5t122.5 -11.5q109 0 109 63.5t-107 63.5q-50 0 -88 -10t-49 0l-26 27
q-6 6 0 22l47 150q-186 31 -304 151.5t-118 294.5z" />
    <glyph glyph-name="scedilla" unicode="&#x15f;" horiz-adv-x="1024" 
d="M84 313q0 20 20 21h132q18 0 20 -21q12 -88 81 -135t185 -47q238 0 238 150q0 76 -67.5 112.5t-242.5 64.5t-257 96.5t-82 203.5t110.5 213t279.5 78t272.5 -80t121.5 -215q0 -20 -21 -21h-114q-14 0 -21 21q-23 72 -90 107.5t-162 35.5t-156 -34.5t-61 -104.5t63.5 -106
t186.5 -57t181.5 -39.5t142.5 -67.5t84 -194t-114 -229.5t-298 -84.5l-45 -105q49 14 121 14t119 -39.5t47 -105.5q0 -170 -230 -170q-106 0 -192 20q-20 6 -21 21v59q0 20 21 21q6 0 55.5 -11.5t122.5 -11.5q109 0 109 63.5t-107 63.5q-50 0 -88 -10t-49 0l-27 27
q-6 6 0 22l47 154q-139 27 -227 114.5t-88 206.5z" />
    <glyph glyph-name="Scaron" unicode="&#x160;" horiz-adv-x="1208" 
d="M315 1839h127q18 0 37 -18l129 -129l129 129q18 18 37 18h127q10 0 13.5 -6t-3.5 -14l-215 -263q-14 -16 -30 -16h-115q-16 0 -31 16l-215 263q-6 8 -3 14t13 6zM74 434q0 20 20 21h131q20 0 21 -21q4 -127 101 -209t255 -82q356 0 356 265q0 96 -95 149t-303 106
t-328.5 145.5t-120.5 267.5t139 276.5t351 101.5t345 -116.5t137 -282.5q0 -20 -20 -21h-131q-20 0 -21 21q-6 104 -97 169.5t-224 65.5t-220 -56t-87 -158t93 -158t302 -111t330.5 -143.5t121.5 -245.5q0 -215 -143 -326.5t-377 -111.5t-385 126.5t-151 327.5z" />
    <glyph glyph-name="scaron" unicode="&#x161;" horiz-adv-x="1024" 
d="M223 1434h127q18 0 37 -19l129 -129l129 129q18 18 37 19h127q10 0 13 -6.5t-3 -14.5l-215 -262q-14 -16 -31 -16h-114q-16 0 -31 16l-215 262q-6 8 -3 14.5t13 6.5zM84 313q0 20 20 21h132q18 0 20 -21q12 -88 81 -135t185 -47q238 0 238 150q0 76 -67.5 112.5
t-242.5 64.5t-257 96.5t-82 203.5t110.5 213t279.5 78t272.5 -80t121.5 -215q0 -20 -21 -21h-114q-14 0 -21 21q-23 72 -90 107.5t-162 35.5t-156 -34.5t-61 -104.5t63.5 -106t186.5 -57t181.5 -39.5t142.5 -67.5t84 -194t-114 -229.5t-297 -84.5t-308 95t-125 238z" />
    <glyph glyph-name="Tcommaaccent" unicode="&#x162;" horiz-adv-x="1155" 
d="M479 -106q0 20 21 20h155q20 0 21 -20v-216q0 -74 -31 -109.5t-102 -35.5h-43q-20 0 -21 21v32q0 20 21 21q59 0 76.5 15.5t17.5 70.5v24h-94q-20 0 -21 21v156zM51 1290v123q0 20 21 21h1011q20 0 21 -21v-123q0 -20 -21 -20h-419v-1250q0 -20 -21 -20h-131
q-20 0 -20 20v1250h-420q-21 0 -21 20z" />
    <glyph glyph-name="tcommaaccent" unicode="&#x163;" horiz-adv-x="860" 
d="M434 -106q0 20 21 20h155q20 0 21 -20v-216q0 -74 -31 -109.5t-102 -35.5h-43q-20 0 -21 21v32q0 20 21 21q59 0 76.5 15.5t17.5 70.5v24h-94q-20 0 -21 21v156zM53 897v111q0 20 21 20h182v295q0 20 20 20h119q20 0 21 -20v-295h340q20 0 20 -20v-111q0 -20 -20 -20
h-340v-572q0 -174 162 -174q109 0 194 31q8 4 14 4q14 0 15 -21v-96q0 -29 -17 -35q-92 -34 -228 -34t-218 82.5t-82 228.5v586h-182q-21 0 -21 20z" />
    <glyph glyph-name="Tcaron" unicode="&#x164;" horiz-adv-x="1155" 
d="M285 1839h127q18 0 37 -18l129 -129l129 129q18 18 36 18h127q10 0 13.5 -6t-2.5 -14l-215 -263q-14 -16 -31 -16h-115q-16 0 -31 16l-215 263q-6 8 -3 14t14 6zM51 1290v123q0 20 21 21h1011q20 0 21 -21v-123q0 -20 -21 -20h-419v-1250q0 -20 -21 -20h-131
q-20 0 -20 20v1250h-420q-21 0 -21 20z" />
    <glyph glyph-name="tcaron" unicode="&#x165;" horiz-adv-x="956" 
d="M674 1157v33q0 20 20 20q61 0 83 21.5t22 89.5v43h-90q-20 0 -21 20v156q0 20 21 21h168q20 0 20 -21v-231q0 -84 -47 -128t-125 -44h-31q-20 0 -20 20zM53 897v111q0 20 21 20h182v295q0 20 20 20h119q20 0 21 -20v-295h340q20 0 20 -20v-111q0 -20 -20 -20h-340v-572
q0 -174 162 -174q109 0 194 31q8 4 14 4q14 0 15 -21v-96q0 -29 -17 -35q-92 -34 -228 -34t-218 82.5t-82 228.5v586h-182q-21 0 -21 20z" />
    <glyph glyph-name="Tbar" unicode="&#x166;" horiz-adv-x="1155" 
d="M51 1290v123q0 20 21 21h1011q20 0 21 -21v-123q0 -20 -21 -20h-419v-258h358q20 0 20 -21v-110q0 -20 -20 -21h-358v-840q0 -20 -21 -20h-131q-20 0 -20 20v840h-367q-20 0 -21 21v110q0 20 21 21h367v258h-420q-21 0 -21 20z" />
    <glyph glyph-name="tbar" unicode="&#x167;" horiz-adv-x="860" 
d="M53 897v111q0 20 21 20h182v295q0 20 20 20h119q20 0 21 -20v-295h340q20 0 20 -20v-111q0 -20 -20 -20h-340v-218h303q20 0 20 -20v-107q0 -20 -20 -20h-303v-207q0 -174 162 -174q106 0 194 35q29 12 29 -16v-105q0 -29 -17 -35q-82 -30 -223 -30t-223 82.5t-82 228.5
v221h-147q-20 0 -21 20v107q0 20 21 20h147v218h-182q-21 0 -21 20z" />
    <glyph glyph-name="Utilde" unicode="&#x168;" horiz-adv-x="1310" 
d="M494 1839q90 0 160.5 -42t119.5 -42t127 51q8 4 17 4t18 -16l57 -86q10 -16 -16 -35q-101 -74 -191 -74t-161.5 42t-119.5 42t-126 -51q-8 -4 -16 -4t-19 17l-57 86q-10 16 16 34q101 74 191 74zM139 496v917q0 20 21 21h131q20 0 20 -21v-895q0 -182 89 -278.5
t255 -96.5t255 96.5t89 278.5v895q0 20 21 21h131q20 0 20 -21v-917q0 -240 -145 -378t-370.5 -138t-371 138t-145.5 378z" />
    <glyph glyph-name="utilde" unicode="&#x169;" 
d="M416 1434q90 0 160.5 -42t119.5 -42t127 51q7 4 17 4t18 -16l57 -86q10 -16 -16 -35q-101 -74 -191 -74t-161.5 42t-119.5 42t-126 -51q-8 -4 -16 -4t-19 16l-57 86q-10 16 16 35q101 74 191 74zM147 352v656q0 20 21 20h119q20 0 20 -20v-631q0 -246 234 -246
q135 0 219 96.5t84 276.5v504q0 20 20 20h119q20 0 21 -20v-988q0 -20 -21 -20h-119q-20 0 -20 20v117q-131 -158 -340 -157q-164 0 -260.5 98t-96.5 274z" />
    <glyph glyph-name="Umacron" unicode="&#x16a;" horiz-adv-x="1310" 
d="M442 1647v102q0 20 21 20h385q20 0 20 -20v-102q0 -20 -20 -21h-385q-21 1 -21 21zM139 496v917q0 20 21 21h131q20 0 20 -21v-895q0 -182 89 -278.5t255 -96.5t255 96.5t89 278.5v895q0 20 21 21h131q20 0 20 -21v-917q0 -240 -145 -378t-370.5 -138t-371 138
t-145.5 378z" />
    <glyph glyph-name="umacron" unicode="&#x16b;" 
d="M350 1241v102q0 20 21 21h385q20 0 20 -21v-102q0 -20 -20 -20h-385q-21 0 -21 20zM147 352v656q0 20 21 20h119q20 0 20 -20v-631q0 -246 234 -246q135 0 219 96.5t84 276.5v504q0 20 20 20h119q20 0 21 -20v-988q0 -20 -21 -20h-119q-20 0 -20 20v117
q-131 -158 -340 -157q-164 0 -260.5 98t-96.5 274z" />
    <glyph glyph-name="Ubreve" unicode="&#x16c;" horiz-adv-x="1310" 
d="M397 1794q0 20 21 21h98q20 0 21 -21q0 -49 31.5 -81t87 -32t87 32t31.5 81q0 20 21 21h98q20 0 20 -21q0 -111 -72.5 -179.5t-185 -68.5t-185.5 68.5t-73 179.5zM139 496v917q0 20 21 21h131q20 0 20 -21v-895q0 -182 89 -278.5t255 -96.5t255 96.5t89 278.5v895
q0 20 21 21h131q20 0 20 -21v-917q0 -240 -145 -378t-370.5 -138t-371 138t-145.5 378z" />
    <glyph glyph-name="ubreve" unicode="&#x16d;" 
d="M315 1389q0 20 21 20h98q20 0 21 -20q0 -49 31.5 -81t87 -32t87 31.5t31.5 81.5q0 20 21 20h98q20 0 20 -20q0 -111 -72.5 -179.5t-185 -68.5t-185.5 68.5t-73 179.5zM147 352v656q0 20 21 20h119q20 0 20 -20v-631q0 -246 234 -246q135 0 219 96.5t84 276.5v504
q0 20 20 20h119q20 0 21 -20v-988q0 -20 -21 -20h-119q-20 0 -20 20v117q-131 -158 -340 -157q-164 0 -260.5 98t-96.5 274z" />
    <glyph glyph-name="Uring" unicode="&#x16e;" horiz-adv-x="1310" 
d="M575 1708q0 -37 23 -59.5t57.5 -22.5t57 22.5t22.5 59.5t-22.5 59.5t-57 22.5t-57.5 -22.5t-23 -59.5zM477 1708q0 76 50.5 124t128 48t128 -48t50.5 -124t-50.5 -124t-128 -48t-128 48t-50.5 124zM139 496v917q0 20 21 21h131q20 0 20 -21v-895q0 -182 89 -278.5
t255 -96.5t255 96.5t89 278.5v895q0 20 21 21h131q20 0 20 -21v-917q0 -240 -145 -378t-370.5 -138t-371 138t-145.5 378z" />
    <glyph glyph-name="uring" unicode="&#x16f;" 
d="M494 1302.5q0 -36.5 22.5 -59t57 -22.5t57 22.5t22.5 59t-22.5 59t-57 22.5t-57 -22.5t-22.5 -59zM395 1302.5q0 75.5 50.5 124t128 48.5t128 -48.5t50.5 -124t-50.5 -124t-128 -48.5t-128 48.5t-50.5 124zM147 352v656q0 20 21 20h119q20 0 20 -20v-631q0 -246 234 -246
q135 0 219 96.5t84 276.5v504q0 20 20 20h119q20 0 21 -20v-988q0 -20 -21 -20h-119q-20 0 -20 20v117q-131 -158 -340 -157q-164 0 -260.5 98t-96.5 274z" />
    <glyph glyph-name="Uhungarumlaut" unicode="&#x170;" horiz-adv-x="1310" 
d="M893 1839h194q10 0 13.5 -6t-2.5 -14l-211 -260q-14 -18 -37 -19h-119q-22 1 -10 21l141 258q12 20 31 20zM514 1839h195q10 0 13 -6t-3 -14l-211 -260q-16 -18 -37 -19h-119q-22 1 -10 21l141 258q12 20 31 20zM139 496v917q0 20 21 21h131q20 0 20 -21v-895
q0 -182 89 -278.5t255 -96.5t255 96.5t89 278.5v895q0 20 21 21h131q20 0 20 -21v-917q0 -240 -145 -378t-370.5 -138t-371 138t-145.5 378z" />
    <glyph glyph-name="uhungarumlaut" unicode="&#x171;" 
d="M965 1434q10 0 13 -6.5t-3 -14.5l-211 -260q-14 -18 -37 -18h-119q-22 0 -10 20l141 258q12 20 31 21h195zM586 1434q10 0 13 -6.5t-3 -14.5l-211 -260q-16 -18 -37 -18h-119q-22 0 -10 20l141 258q12 20 31 21h195zM147 352v656q0 20 21 20h119q20 0 20 -20v-631
q0 -246 234 -246q135 0 219 96.5t84 276.5v504q0 20 20 20h119q20 0 21 -20v-988q0 -20 -21 -20h-119q-20 0 -20 20v117q-131 -158 -340 -157q-164 0 -260.5 98t-96.5 274z" />
    <glyph glyph-name="Uogonek" unicode="&#x172;" horiz-adv-x="1310" 
d="M139 496v917q0 20 21 21h131q20 0 20 -21v-895q0 -182 89 -278.5t255 -96.5t255 96.5t89 278.5v895q0 20 21 21h131q20 0 20 -21v-917q0 -193 -98 -324t-256 -172q-57 -14 -91 -52t-34 -86t37 -79t102 -31h25q20 0 21 -20v-70q0 -20 -21 -20h-72q-106 0 -175.5 47
t-69.5 136t73 159q-209 12 -341 148.5t-132 363.5z" />
    <glyph glyph-name="uogonek" unicode="&#x173;" 
d="M147 352v656q0 20 21 20h119q20 0 20 -20v-631q0 -246 234 -246q135 0 219 96.5t84 276.5v504q0 20 20 20h119q20 0 21 -20v-988q0 -18 -15 -20q-55 -14 -89 -52t-34 -86t37 -79t103 -31h24q20 0 21 -20v-70q0 -20 -21 -20h-72q-106 0 -175.5 47t-69.5 139q0 61 39 112.5
t92 77.5v119q-131 -158 -340 -157q-164 0 -260.5 98t-96.5 274z" />
    <glyph glyph-name="Wcircumflex" unicode="&#x174;" horiz-adv-x="1712" 
d="M799 1839h114q16 0 31 -16l215 -262q6 -8 3 -14.5t-13 -6.5h-127q-18 0 -37 19l-129 129l-129 -129q-18 -18 -37 -19h-127q-10 0 -13 6t3 15l215 262q14 16 31 16zM197 1434q18 0 24 -21l260 -1186l275 1088q6 20 24 20h152q18 0 24 -20l275 -1088l260 1186q2 20 25 21
h145q23 0 16 -21l-317 -1393q-6 -20 -23 -20h-186q-16 0 -23 20l-272 1067l-272 -1067q-6 -20 -23 -20h-186q-16 0 -23 20l-317 1393q-6 20 16 21h146z" />
    <glyph glyph-name="wcircumflex" unicode="&#x175;" horiz-adv-x="1527" 
d="M821 1434q16 0 31 -17l215 -262q6 -8 3 -14t-13 -6h-127q-18 0 -37 18l-129 129l-129 -129q-18 -18 -37 -18h-127q-10 0 -13 6t3 14l215 262q14 16 31 17h114zM25 1014q0 14 16 14h141q23 0 29 -20l225 -799l228 749q6 20 22 21h156q16 0 22 -21l228 -749l225 799
q6 20 29 20h141q16 0 16 -14q0 -8 -2 -17l-313 -977q-4 -20 -27 -20h-145q-20 0 -27 20l-225 752l-225 -752q-6 -20 -27 -20h-145q-23 0 -27 20l-313 977q-2 9 -2 17z" />
    <glyph glyph-name="Ycircumflex" unicode="&#x176;" horiz-adv-x="1118" 
d="M502 1839h114q16 0 31 -16l215 -262q6 -8 3 -14.5t-13 -6.5h-127q-18 0 -37 19l-129 129l-129 -129q-18 -18 -37 -19h-127q-10 0 -13 6t3 15l215 262q14 16 31 16zM193 1434q16 0 24 -17l342 -680l342 680q8 16 25 17h161q23 0 13 -21l-455 -885v-508q0 -20 -20 -20h-131
q-20 0 -21 20v508l-455 885q-10 20 13 21h162z" />
    <glyph glyph-name="ycircumflex" unicode="&#x177;" horiz-adv-x="991" 
d="M563 1434q16 0 31 -17l215 -262q6 -8 3 -14t-13 -6h-127q-18 0 -37 18l-129 129l-129 -129q-18 -18 -37 -18h-127q-10 0 -13 6t3 14l215 262q14 16 31 17h114zM25 1012q0 16 16 16h147q20 0 27 -20l303 -783l258 783q6 20 27 20h141q26 0 14 -29l-374 -1099
q-61 -180 -146.5 -253t-208.5 -73q-80 0 -151 33q-20 12 -21 33v110q1 20 13 20t55 -22t109 -22q134 0 204 260l-409 1009q-4 13 -4 17z" />
    <glyph glyph-name="Ydieresis" unicode="&#x178;" horiz-adv-x="1118" 
d="M627 1655v164q0 20 20 20h164q20 0 20 -20v-164q0 -20 -20 -21h-164q-20 1 -20 21zM287 1655v164q0 20 20 20h164q20 0 21 -20v-164q0 -20 -21 -21h-164q-20 1 -20 21zM193 1434q16 0 24 -17l342 -680l342 680q8 16 25 17h161q23 0 13 -21l-455 -885v-508q0 -20 -20 -20
h-131q-20 0 -21 20v508l-455 885q-10 20 13 21h162z" />
    <glyph glyph-name="Zacute" unicode="&#x179;" horiz-adv-x="1241" 
d="M453 1552q0 4 2 9l141 258q12 20 31 20h194q27 0 10 -20l-210 -260q-14 -18 -37 -19h-119q-12 0 -12 12zM84 20v123q0 16 12 35l805 1092h-762q-20 0 -20 20v123q0 20 20 21h948q20 0 21 -21v-123q0 -16 -12 -35l-803 -1091h837q20 0 21 -21v-123q0 -20 -21 -20h-1026
q-20 0 -20 20z" />
    <glyph glyph-name="zacute" unicode="&#x17a;" horiz-adv-x="989" 
d="M346 1147q0 4 2 8l141 258q12 20 31 21h195q14 0 14 -11q0 -4 -4 -10l-211 -260q-14 -18 -37 -18h-119q-12 0 -12 12zM68 20v111q0 14 12 31l598 715h-563q-20 0 -21 20v111q0 20 21 20h737q20 0 20 -20v-111q0 -20 -16 -43l-588 -702h623q20 0 20 -21v-111
q0 -20 -20 -20h-803q-20 0 -20 20z" />
    <glyph glyph-name="Zdotaccent" unicode="&#x17b;" horiz-adv-x="1241" 
d="M498 1642v177q0 20 20 20h176q20 0 21 -20v-177q0 -20 -21 -20h-176q-20 0 -20 20zM84 20v123q0 16 12 35l805 1092h-762q-20 0 -20 20v123q0 20 20 21h948q20 0 21 -21v-123q0 -16 -12 -35l-803 -1091h837q20 0 21 -21v-123q0 -20 -21 -20h-1026q-20 0 -20 20z" />
    <glyph glyph-name="zdotaccent" unicode="&#x17c;" horiz-adv-x="989" 
d="M387 1237v176q0 20 21 21h176q20 0 20 -21v-176q0 -20 -20 -20h-176q-21 0 -21 20zM68 20v111q0 14 12 31l598 715h-563q-20 0 -21 20v111q0 20 21 20h737q20 0 20 -20v-111q0 -20 -16 -43l-588 -702h623q20 0 20 -21v-111q0 -20 -20 -20h-803q-20 0 -20 20z" />
    <glyph glyph-name="Zcaron" unicode="&#x17d;" horiz-adv-x="1241" 
d="M332 1839h127q18 0 37 -18l129 -129l129 129q18 18 37 18h127q10 0 13 -6t-3 -14l-215 -263q-14 -16 -31 -16h-115q-16 0 -30 16l-215 263q-7 8 -3.5 14t13.5 6zM84 20v123q0 16 12 35l805 1092h-762q-20 0 -20 20v123q0 20 20 21h948q20 0 21 -21v-123q0 -16 -12 -35
l-803 -1091h837q20 0 21 -21v-123q0 -20 -21 -20h-1026q-20 0 -20 20z" />
    <glyph glyph-name="zcaron" unicode="&#x17e;" horiz-adv-x="989" 
d="M182 1434h127q18 0 37 -19l129 -129l129 129q18 18 37 19h127q10 0 13 -6.5t-3 -14.5l-215 -262q-14 -16 -31 -16h-114q-16 0 -31 16l-215 262q-6 8 -3 14.5t13 6.5zM68 20v111q0 14 12 31l598 715h-563q-20 0 -21 20v111q0 20 21 20h737q20 0 20 -20v-111q0 -20 -16 -43
l-588 -702h623q20 0 20 -21v-111q0 -20 -20 -20h-803q-20 0 -20 20z" />
    <glyph glyph-name="longs" unicode="&#x17f;" horiz-adv-x="770" 
d="M76 897v111q0 20 20 20h168v86q0 158 87 249t229 91t225 -39q16 -8 16 -35v-106q0 -31 -28 -17q-98 45 -201 46q-168 0 -168 -203v-1080q0 -20 -21 -20h-118q-20 0 -21 20v857h-168q-20 0 -20 20z" />
    <glyph glyph-name="florin" unicode="&#x192;" horiz-adv-x="966" 
d="M-102 -246q0 29 30 17q88 -45 160 -45t106.5 33.5t47.5 123.5l133 994h-168q-18 0 -19 20v111q0 20 23 20h184l19 133q18 133 109 213t213 80t204 -39q16 -10 16 -35v-106q0 -32 -30 -17q-88 45 -167 45q-162 1 -188 -157l-16 -117h313q20 0 21 -20v-111q0 -20 -21 -20
h-333l-136 -1008q-39 -295 -282 -295q-121 0 -203 39q-16 10 -16 35v106z" />
    <glyph glyph-name="endash" unicode="&#x2013;" horiz-adv-x="1171" 
d="M133 641v119q0 20 21 20h864q20 0 20 -20v-119q0 -20 -20 -20h-864q-21 0 -21 20z" />
    <glyph glyph-name="emdash" unicode="&#x2014;" horiz-adv-x="1626" 
d="M133 641v119q0 20 21 20h1319q20 0 20 -20v-119q0 -20 -20 -20h-1319q-21 0 -21 20z" />
    <glyph glyph-name="quoteleft" unicode="&#x2018;" horiz-adv-x="526" 
d="M156 1030v232q0 84 47 128t125 44h30q20 0 21 -21v-33q0 -20 -21 -20q-61 0 -82.5 -21.5t-21.5 -89.5v-43h90q20 0 21 -20v-156q0 -20 -21 -20h-168q-20 0 -20 20z" />
    <glyph glyph-name="quoteright" unicode="&#x2019;" horiz-adv-x="526" 
d="M147 1030v33q0 20 21 20q61 0 82.5 21.5t21.5 89.5v43h-90q-20 0 -20 20v156q0 20 20 21h168q20 0 21 -21v-231q0 -84 -47.5 -128t-124.5 -44h-31q-21 0 -21 20z" />
    <glyph glyph-name="quotesinglbase" unicode="&#x201a;" horiz-adv-x="526" 
d="M147 -174q0 20 21 20q61 0 82.5 21.5t21.5 89.5v43h-90q-20 0 -20 20v156q0 20 20 21h168q20 0 21 -21v-231q0 -84 -47.5 -128t-124.5 -44h-31q-20 0 -21 20v33z" />
    <glyph glyph-name="quotedblleft" unicode="&#x201c;" horiz-adv-x="833" 
d="M463 1030v232q0 84 47 128t125 44h31q20 0 20 -21v-33q0 -20 -20 -20q-61 0 -83 -21.5t-22 -89.5v-43h90q20 0 21 -20v-156q0 -20 -21 -20h-168q-20 0 -20 20zM156 1030v232q0 84 47 128t125 44h30q20 0 21 -21v-33q0 -20 -21 -20q-61 0 -82.5 -21.5t-21.5 -89.5v-43h90
q20 0 21 -20v-156q0 -20 -21 -20h-168q-20 0 -20 20z" />
    <glyph glyph-name="quotedblright" unicode="&#x201d;" horiz-adv-x="833" 
d="M455 1030v33q0 20 20 20q61 0 83 21.5t22 89.5v43h-91q-20 0 -20 20v156q0 20 20 21h168q20 0 21 -21v-231q0 -84 -47 -128t-125 -44h-31q-20 0 -20 20zM147 1030v33q0 20 21 20q61 0 82.5 21.5t21.5 89.5v43h-90q-20 0 -20 20v156q0 20 20 21h168q20 0 21 -21v-231
q0 -84 -47.5 -128t-124.5 -44h-31q-21 0 -21 20z" />
    <glyph glyph-name="quotedblbase" unicode="&#x201e;" horiz-adv-x="833" 
d="M455 -174q0 20 20 20q61 0 83 21.5t22 89.5v43h-91q-20 0 -20 20v156q0 20 20 21h168q20 0 21 -21v-231q0 -84 -47 -128t-125 -44h-31q-20 0 -20 20v33zM147 -174q0 20 21 20q61 0 82.5 21.5t21.5 89.5v43h-90q-20 0 -20 20v156q0 20 20 21h168q20 0 21 -21v-231
q0 -84 -47.5 -128t-124.5 -44h-31q-20 0 -21 20v33z" />
    <glyph glyph-name="dagger" unicode="&#x2020;" horiz-adv-x="974" 
d="M63 889v119q0 20 21 20h317v385q0 20 21 21h131q20 0 20 -21v-385h318q20 0 20 -20v-119q0 -20 -20 -21h-318v-1253q0 -20 -20 -21h-131q-20 0 -21 21v1253h-317q-21 1 -21 21z" />
    <glyph glyph-name="daggerdbl" unicode="&#x2021;" horiz-adv-x="974" 
d="M63 20v119q0 20 21 21h317v708h-317q-20 0 -21 21v119q0 20 21 20h317v385q0 20 21 21h131q20 0 20 -21v-385h318q20 0 20 -20v-119q0 -20 -20 -21h-318v-708h318q20 0 20 -21v-119q0 -20 -20 -20h-318v-385q0 -20 -20 -21h-131q-20 0 -21 21v385h-317q-21 0 -21 20z" />
    <glyph glyph-name="bullet" unicode="&#x2022;" horiz-adv-x="786" 
d="M201 668q0 80 56 136t136 56t136.5 -56t56.5 -136t-56.5 -136.5t-136.5 -56.5t-136 56.5t-56 136.5z" />
    <glyph glyph-name="ellipsis" unicode="&#x2026;" horiz-adv-x="1531" 
d="M1135 20v156q0 20 20 21h156q20 0 20 -21v-156q0 -20 -20 -20h-156q-20 0 -20 20zM666 20v156q0 20 20 21h156q20 0 20 -21v-156q0 -20 -20 -20h-156q-20 0 -20 20zM197 20v156q0 20 20 21h156q20 0 20 -21v-156q0 -20 -20 -20h-156q-20 0 -20 20z" />
    <glyph glyph-name="guilsinglleft" unicode="&#x2039;" horiz-adv-x="690" 
d="M96 504v114q0 18 21 37l436 404q6 6 12 6q12 0 13 -14v-172q0 -20 -15 -33l-307 -285l307 -285q14 -12 15 -32v-172q0 -14 -10 -14t-15 5l-436 404q-21 19 -21 37z" />
    <glyph glyph-name="guilsinglright" unicode="&#x203a;" horiz-adv-x="690" 
d="M113 72v172q0 20 14 32l307 285l-307 285q-14 12 -14 33v172q0 14 12 14q6 0 12 -6l436 -404q20 -18 21 -37v-114q0 -18 -21 -37l-436 -404q-6 -5 -15 -5t-9 14z" />
    <glyph glyph-name="Euro" unicode="&#x20ac;" horiz-adv-x="1398" 
d="M399 449q87 -310 381 -310q140 0 232 70t131 231q6 20 20 21h125q20 0 21 -21q-39 -219 -179.5 -339.5t-346.5 -120.5t-352 122.5t-204 346.5h-168q-20 0 -20 20v119q0 20 20 20h142q-4 70 -4 109t4 108h-142q-20 0 -20 21v119q0 20 20 20h168q57 223 204 346t353 123
t346 -121t179 -340q0 -20 -21 -20h-125q-14 0 -20 20q-39 162 -131 231.5t-232 69.5q-293 0 -381 -309h437q20 0 20 -20v-119q0 -20 -20 -21h-463q-4 -35 -4 -109t4 -108h463q20 0 20 -20v-119q0 -20 -20 -20h-437z" />
    <glyph glyph-name="trademark" unicode="&#x2122;" horiz-adv-x="1460" 
d="M668 688v725q0 20 20 21h117q18 0 24 -17l185 -469l184 469q6 16 25 17h116q20 0 21 -21v-725q0 -20 -21 -20h-73q-20 0 -21 20v586l-184 -469q-6 -12 -17 -12h-61q-10 0 -16 12l-185 469v-586q0 -20 -20 -20h-74q-20 0 -20 20zM41 1343v70q0 20 20 21h504q20 0 21 -21
v-70q0 -20 -21 -20h-194v-635q0 -20 -21 -20h-74q-20 0 -20 20v635h-195q-20 0 -20 20z" />
    <glyph glyph-name="lozenge" unicode="&#x25ca;" horiz-adv-x="1138" 
d="M229 717l340 -561l340 561l-340 561zM51 717q0 8 6 20l404 676q8 20 28 21h160q20 0 29 -21l403 -676q6 -12 6 -20t-6 -21l-403 -676q-8 -20 -29 -20h-160q-20 0 -28 20l-404 676q-6 13 -6 21z" />
    <glyph glyph-name="uniE000" unicode="&#xe000;" horiz-adv-x="1030" 
d="M0 1030h1030v-1030h-1030v1030z" />
    <glyph glyph-name="NULL" horiz-adv-x="0" 
 />
    <glyph glyph-name="CR.001" horiz-adv-x="682" 
 />
  </font>
</defs>
</svg>
